<svg width="346" height="317" viewBox="0 0 346 317" fill="none" xmlns="http://www.w3.org/2000/svg">
<path d="M220.808 139.639C206.679 131.002 189.743 130.063 174.821 137.254C162.112 143.36 152.224 153.743 139.501 159.854C122.12 168.212 103.036 172.781 85.464 180.788C67.8923 188.796 51.0723 201.345 44.7712 219.348C37.3472 240.611 39.9549 265.614 51.3089 285.053C69.7669 316.649 106.376 327.871 141.622 327.461C216.099 326.599 254.462 237.953 242.31 174.245C239.656 160.442 233.188 147.204 220.808 139.639Z" fill="#92E3A9"/>
<path opacity="0.7" d="M220.808 139.639C206.679 131.002 189.743 130.063 174.821 137.254C162.112 143.36 152.224 153.743 139.501 159.854C122.12 168.212 103.036 172.781 85.464 180.788C67.8923 188.796 51.0723 201.345 44.7712 219.348C37.3472 240.611 39.9549 265.614 51.3089 285.053C69.7669 316.649 106.376 327.871 141.622 327.461C216.099 326.599 254.462 237.953 242.31 174.245C239.656 160.442 233.188 147.204 220.808 139.639Z" fill="white"/>
<path d="M82.963 257.483L79.0654 258.176L78.2998 254.027L73.6691 254.852L74.4347 259.002L70.5417 259.695L71.4094 264.405L75.3024 263.712L76.068 267.862L80.6987 267.041L79.9331 262.887L83.8307 262.194L82.963 257.483Z" stroke="#92E3A9" stroke-linecap="round" stroke-linejoin="round"/>
<path d="M121.874 193.917L118.139 192.622L119.568 188.645L115.132 187.104L113.703 191.08L109.968 189.785L108.348 194.3L112.079 195.595L110.65 199.576L115.086 201.112L116.519 197.136L120.25 198.431L121.874 193.917Z" stroke="#92E3A9" stroke-linecap="round" stroke-linejoin="round"/>
<path d="M216.085 241.441L212.586 243.26L210.577 239.53L206.415 241.692L208.424 245.422L204.925 247.241L207.204 251.473L210.702 249.653L212.711 253.379L216.873 251.218L214.864 247.487L218.363 245.668L216.085 241.441Z" stroke="#92E3A9" stroke-linecap="round" stroke-linejoin="round"/>
<path d="M66.6859 247.597C68.2542 247.597 69.5256 246.348 69.5256 244.806C69.5256 243.265 68.2542 242.016 66.6859 242.016C65.1176 242.016 63.8462 243.265 63.8462 244.806C63.8462 246.348 65.1176 247.597 66.6859 247.597Z" stroke="#92E3A9" stroke-linecap="round" stroke-linejoin="round"/>
<path d="M110.919 207.496C110.919 207.642 110.875 207.785 110.792 207.907C110.71 208.028 110.592 208.123 110.455 208.179C110.318 208.235 110.166 208.249 110.021 208.221C109.875 208.192 109.741 208.122 109.636 208.019C109.531 207.915 109.459 207.784 109.43 207.64C109.401 207.497 109.416 207.349 109.473 207.214C109.53 207.079 109.626 206.963 109.75 206.882C109.873 206.801 110.019 206.758 110.167 206.758C110.367 206.758 110.558 206.835 110.699 206.974C110.84 207.112 110.919 207.3 110.919 207.496Z" stroke="#92E3A9" stroke-linecap="round" stroke-linejoin="round"/>
<path d="M76.5228 194.824C76.5228 195.34 76.3671 195.844 76.0755 196.273C75.7838 196.702 75.3693 197.036 74.8844 197.234C74.3994 197.431 73.8657 197.483 73.3509 197.382C72.8361 197.282 72.3631 197.033 71.992 196.669C71.6208 196.304 71.368 195.839 71.2656 195.333C71.1632 194.827 71.2157 194.303 71.4166 193.826C71.6175 193.349 71.9577 192.942 72.3942 192.655C72.8306 192.369 73.3438 192.216 73.8687 192.216C74.5722 192.217 75.2466 192.492 75.744 192.981C76.2415 193.47 76.5215 194.133 76.5228 194.824Z" stroke="#92E3A9" stroke-linecap="round" stroke-linejoin="round"/>
<path d="M193.464 230.155C193.464 230.447 193.376 230.733 193.211 230.976C193.046 231.219 192.811 231.408 192.536 231.52C192.262 231.632 191.959 231.661 191.668 231.604C191.376 231.547 191.108 231.406 190.898 231.2C190.688 230.993 190.545 230.73 190.487 230.443C190.429 230.157 190.458 229.86 190.572 229.59C190.686 229.32 190.879 229.089 191.126 228.926C191.373 228.764 191.664 228.677 191.961 228.677C192.36 228.677 192.742 228.833 193.024 229.11C193.306 229.387 193.464 229.763 193.464 230.155Z" stroke="#92E3A9" stroke-linecap="round" stroke-linejoin="round"/>
<path d="M178.269 185.125C180.126 185.125 181.633 183.645 181.633 181.819C181.633 179.993 180.126 178.513 178.269 178.513C176.411 178.513 174.905 179.993 174.905 181.819C174.905 183.645 176.411 185.125 178.269 185.125Z" stroke="#92E3A9" stroke-linecap="round" stroke-linejoin="round"/>
<path d="M157.556 211.537C157.732 211.797 163.054 212.841 165.815 216.785C167.421 219.051 168.769 221.484 169.833 224.04C169.833 224.04 174.45 226.74 176.817 228.965C179.183 231.19 182.004 234.145 184.18 235.695C186.356 237.246 190.834 240.187 191.961 243.63C191.961 243.63 185.247 261.701 183.35 265.696C181.452 269.69 176.77 278.167 176.77 278.167L168.418 313.038H119.972L118.32 301.077C118.32 301.077 103.472 298.213 97.2684 292.869C97.2684 292.869 96.6837 279.645 99.2775 267.848C101.871 256.051 110.692 231.523 116.668 224.031C116.668 224.031 126.213 219.544 134.634 218.103C134.634 218.103 140.1 213.858 143.678 213.406C147.255 212.955 157.556 211.537 157.556 211.537Z" fill="white"/>
<path d="M118.974 306.467C123.276 307.274 127.025 307.971 131.405 307.921C135.785 307.871 140.258 306.904 143.84 304.437C144.532 303.871 145.316 303.424 146.16 303.115C148.062 302.591 149.946 303.826 151.835 304.401C154.229 305.13 156.855 304.784 159.203 303.908C161.551 303.033 163.662 301.669 165.755 300.311C165.445 304.506 165.345 308.709 165.453 312.919L168.437 313.038L176.079 279.991C176.079 279.991 163.008 294.912 156.637 299.367L144.415 296.275C144.415 296.275 143.265 297.214 140.843 297.689C140.843 297.689 139.734 301.879 133.498 301.888C127.261 301.897 118.32 301.077 118.32 301.077L118.974 306.467Z" fill="#92E3A9"/>
<path opacity="0.5" d="M118.974 306.467C123.276 307.274 127.025 307.971 131.405 307.921C135.785 307.871 140.258 306.904 143.84 304.437C144.532 303.871 145.316 303.424 146.16 303.115C148.062 302.591 149.946 303.826 151.835 304.401C154.229 305.13 156.855 304.784 159.203 303.908C161.551 303.033 163.662 301.669 165.755 300.311C165.445 304.506 165.345 308.709 165.453 312.919L168.437 313.038L176.079 279.991C176.079 279.991 163.008 294.912 156.637 299.367L144.415 296.275C144.415 296.275 143.265 297.214 140.843 297.689C140.843 297.689 139.734 301.879 133.498 301.888C127.261 301.897 118.32 301.077 118.32 301.077L118.974 306.467Z" fill="white"/>
<path d="M106.451 244.806C106.451 244.806 100.776 271.879 101.064 281.177C101.064 281.177 108.776 279.052 114.158 281.177C114.158 281.177 104.999 280.174 101.055 284.301C97.1106 288.427 109.249 299.271 133.535 297.069C133.535 297.069 138.379 298.56 140.838 297.684C140.838 297.684 140.179 301.998 133.493 301.884C126.834 301.624 107.356 301.464 97.2637 292.873C97.2684 292.878 95.997 267.989 106.451 244.806Z" fill="#92E3A9"/>
<path opacity="0.6" d="M106.451 244.806C106.451 244.806 100.776 271.879 101.064 281.177C101.064 281.177 108.776 279.052 114.158 281.177C114.158 281.177 104.999 280.174 101.055 284.301C97.1106 288.427 109.249 299.271 133.535 297.069C133.535 297.069 138.379 298.56 140.838 297.684C140.838 297.684 140.179 301.998 133.493 301.884C126.834 301.624 107.356 301.464 97.2637 292.873C97.2684 292.878 95.997 267.989 106.451 244.806Z" fill="white"/>
<path d="M118.055 249.996C118.055 249.996 119.73 261.984 122.436 264.492C125.141 267 137.748 266.179 142.74 268.883C142.74 268.883 147.441 260.88 155.941 255.873L144.415 273.708L134.453 271.396L122.292 269.572L121.271 271.879H119.443C119.443 271.879 119.239 259.084 118.055 249.996Z" fill="#92E3A9"/>
<path opacity="0.5" d="M118.055 249.996C118.055 249.996 119.73 261.984 122.436 264.492C125.141 267 137.748 266.179 142.74 268.883C142.74 268.883 147.441 260.88 155.941 255.873L144.415 273.708L134.453 271.396L122.292 269.572L121.271 271.879H119.443C119.443 271.879 119.239 259.084 118.055 249.996Z" fill="white"/>
<path d="M165.704 225.577C170.914 228.591 171.499 231.988 172.571 234.414C169.861 234.943 167.059 235.509 164.822 237.1C162.038 239.088 160.53 242.381 159.361 245.577C158.255 248.602 157.325 251.687 156.577 254.816C159.095 250.344 162.675 246.537 167.012 243.717C169.513 242.093 172.603 240.785 175.457 241.701C173.063 242.7 170.353 244.049 169.847 246.557C169.748 246.974 169.765 247.409 169.898 247.816C170.325 248.997 171.819 249.316 172.951 249.891C175.16 251.008 176.311 253.539 176.408 255.992C176.506 258.445 175.74 260.817 174.984 263.138C174.319 265.171 173.654 267.205 172.988 269.239C172.139 271.838 171.276 274.474 169.74 276.754C168.205 279.034 165.899 280.944 163.156 281.391C162.01 281.609 160.823 281.477 159.755 281.013C158.946 280.58 158.193 280.052 157.514 279.44C154.224 276.829 150.271 275.151 146.081 274.588C151.473 278.09 154.025 284.451 156.261 290.411C155.234 288.644 153.755 287.173 151.969 286.143C151.512 285.83 150.968 285.661 150.41 285.659C148.944 285.773 148.48 287.611 147.598 288.76C146.54 290.128 144.606 290.616 142.87 290.397C141.135 290.178 139.539 289.38 137.98 288.573L118.255 278.578L116.863 282.682C116.863 282.682 132.574 294.994 156.646 299.349C156.646 299.349 172.283 287.205 177.823 276.439C183.364 265.673 191.971 243.607 191.971 243.607C191.971 243.607 188.82 237.743 183.419 234.683C183.419 234.683 179.387 232.809 178.538 230.493C177.689 228.176 170.112 224.177 170.112 224.177C170.112 224.177 171.095 226.649 165.704 225.577Z" fill="#92E3A9"/>
<path opacity="0.6" d="M165.704 225.577C170.914 228.591 171.499 231.988 172.571 234.414C169.861 234.943 167.059 235.509 164.822 237.1C162.038 239.088 160.53 242.381 159.361 245.577C158.255 248.602 157.325 251.687 156.577 254.816C159.095 250.344 162.675 246.537 167.012 243.717C169.513 242.093 172.603 240.785 175.457 241.701C173.063 242.7 170.353 244.049 169.847 246.557C169.748 246.974 169.765 247.409 169.898 247.816C170.325 248.997 171.819 249.316 172.951 249.891C175.16 251.008 176.311 253.539 176.408 255.992C176.506 258.445 175.74 260.817 174.984 263.138C174.319 265.171 173.654 267.205 172.988 269.239C172.139 271.838 171.276 274.474 169.74 276.754C168.205 279.034 165.899 280.944 163.156 281.391C162.01 281.609 160.823 281.477 159.755 281.013C158.946 280.58 158.193 280.052 157.514 279.44C154.224 276.829 150.271 275.151 146.081 274.588C151.473 278.09 154.025 284.451 156.261 290.411C155.234 288.644 153.755 287.173 151.969 286.143C151.512 285.83 150.968 285.661 150.41 285.659C148.944 285.773 148.48 287.611 147.598 288.76C146.54 290.128 144.606 290.616 142.87 290.397C141.135 290.178 139.539 289.38 137.98 288.573L118.255 278.578L116.863 282.682C116.863 282.682 132.574 294.994 156.646 299.349C156.646 299.349 172.283 287.205 177.823 276.439C183.364 265.673 191.971 243.607 191.971 243.607C191.971 243.607 188.82 237.743 183.419 234.683C183.419 234.683 179.387 232.809 178.538 230.493C177.689 228.176 170.112 224.177 170.112 224.177C170.112 224.177 171.095 226.649 165.704 225.577Z" fill="white"/>
<path d="M164.047 183.602C164.047 183.602 165.1 171.532 159.806 170.378C154.512 169.224 151.538 164.45 151.538 164.45L132.755 169.603L129.841 180.702L131.697 186.32C131.697 186.32 132.087 191.532 132.161 194.108C132.235 196.685 132.161 198.668 134.147 201.796C136.133 204.925 137.98 208.03 142.272 210.734V217.843C142.272 217.843 139.618 225.454 141.084 230.123C141.084 230.123 141.961 231.035 144.383 229.667C146.805 228.299 157.166 221.496 160.781 214.391L161.903 196.329C161.903 196.329 164.887 196.785 166.172 194.113C168.061 191.5 167.986 188.454 167.253 185.973C166.52 183.493 163.365 185.098 163.365 185.098L164.047 183.602Z" fill="#999999"/>
<path d="M142.476 201.299C143.007 200.731 143.661 200.288 144.391 200.002C145.12 199.716 145.906 199.595 146.689 199.649C146.689 199.649 148.949 196.142 151.329 196.785C151.329 196.785 152.062 200.501 149.208 201.965C145.496 203.867 142.476 201.299 142.476 201.299Z" fill="#737373"/>
<path d="M135.497 168.066C135.497 168.066 131.001 173.871 131.261 179.922C131.521 185.973 132.416 190.264 132.156 194.934C131.897 199.603 136.908 207.424 142.044 210.574C145.881 212.932 150.693 212.531 154.428 210.118C158.604 207.382 160.901 202.467 161.741 197.747C161.825 197.291 161.889 196.835 161.936 196.343" stroke="#263238" stroke-linecap="round" stroke-linejoin="round"/>
<path d="M142.044 210.579C142.044 210.579 142.773 217.118 142.044 219.357C141.242 221.815 140.272 227.538 141.116 230.123C141.961 232.709 157.76 221.842 160.813 214.387C160.813 214.387 161.235 199.899 162.289 196.279" stroke="#263238" stroke-linecap="round" stroke-linejoin="round"/>
<path d="M141.608 201.14C141.608 201.14 148.796 203.137 151.737 195.846" stroke="#263238" stroke-linecap="round" stroke-linejoin="round"/>
<path d="M142.188 212.152C142.188 212.152 143.719 216.817 147.023 217.095C150.327 217.373 158.591 210.866 161.407 203.201V199.366C161.407 199.366 159.087 209.398 152.294 211.222C145.501 213.046 142.323 210.725 142.323 210.725L142.188 212.152Z" fill="#263238"/>
<path d="M151.324 196.785C148.132 196.566 146.684 199.649 146.684 199.649C145.898 199.554 145.099 199.656 144.363 199.945C143.627 200.233 142.976 200.699 142.471 201.299C143.258 201.993 144.225 202.458 145.264 202.643C146.304 202.828 147.375 202.726 148.359 202.348C151.988 201.108 151.324 196.785 151.324 196.785Z" stroke="#263238" stroke-linecap="round" stroke-linejoin="round"/>
<path d="M143.32 183.032C143.36 184.479 143.295 185.926 143.125 187.364C142.954 188.654 142.346 189.89 141.84 191.103C141.376 192.207 140.601 193.903 141.246 195.066C141.979 196.384 144.415 195.066 144.415 195.066" stroke="#263238" stroke-linecap="round" stroke-linejoin="round"/>
<path d="M145.914 194.792C146.735 194.902 147.9 194.792 148.132 193.392" stroke="#263238" stroke-linecap="round" stroke-linejoin="round"/>
<path d="M148.568 181.29C149.362 180.546 150.417 180.131 151.515 180.131C152.612 180.131 153.667 180.546 154.461 181.29" stroke="#263238" stroke-width="2" stroke-linecap="round" stroke-linejoin="round"/>
<path d="M139.205 182.43C139.205 182.43 137.028 179.694 134.179 182.43" stroke="#263238" stroke-width="2" stroke-linecap="round" stroke-linejoin="round"/>
<path d="M160.229 189.348C160.229 189.348 162.711 183.488 165.95 184.746C168.181 185.617 168.316 189.402 167.133 192.042C165.95 194.683 165.356 197.373 161.412 195.868" stroke="#263238" stroke-linecap="round" stroke-linejoin="round"/>
<path d="M160.669 188.449C160.669 188.449 158.284 187.619 157.843 183.812C157.403 180.004 159.778 176.192 158.897 173.456C158.015 170.72 151.069 172.088 149.487 167.318C149.487 167.318 144.271 171.14 134.175 170.319C134.175 170.319 132.045 173.885 131.674 176.064C131.177 179.472 131.189 182.934 131.711 186.338C131.711 186.457 131.753 186.571 131.776 186.689C132.5 190.401 128.894 181.637 128.992 177.893C129.089 174.149 126.793 169.393 129.785 165.85C132.778 162.307 143.752 160.232 145.914 158.568C148.076 156.903 152.28 161.336 157.138 162.968C161.996 164.601 166.024 166.548 165.411 173.319C164.799 180.091 165.444 180.998 165.472 184.564C165.472 184.573 163.226 183.743 160.669 188.449Z" fill="#263238"/>
<path d="M151.524 186.224C151.524 187.136 151.167 187.893 150.721 187.893C150.276 187.893 149.923 187.145 149.923 186.224C149.923 185.303 150.28 184.56 150.721 184.56C151.162 184.56 151.524 185.312 151.524 186.224Z" fill="#263238"/>
<path d="M139.205 186.224C139.205 187.136 138.847 187.893 138.406 187.893C137.966 187.893 137.608 187.145 137.608 186.224C137.608 185.303 137.966 184.56 138.406 184.56C138.847 184.56 139.205 185.312 139.205 186.224Z" fill="#263238"/>
<path d="M148.568 188.449C148.568 188.449 150.225 190.177 152.322 190.424" stroke="#263238" stroke-linecap="round" stroke-linejoin="round"/>
<path d="M137.284 190.424C137.284 190.424 140.314 190.214 140.996 188.449" stroke="#263238" stroke-linecap="round" stroke-linejoin="round"/>
<path d="M144.327 231.231C146.582 229.822 149.566 230.351 152.034 231.35C153.389 231.902 154.679 232.595 156.029 233.174C156.697 233.464 157.385 233.705 158.089 233.894C159.783 234.327 159.175 232.262 159.078 231.336C158.939 230.009 158.841 228.678 158.679 227.36C158.612 227.087 158.645 226.8 158.771 226.548C158.938 226.345 159.171 226.205 159.43 226.151C162.405 225.239 165.611 225.641 168.71 225.695C168.992 225.728 169.277 225.676 169.527 225.545C169.991 225.249 169.94 224.578 169.815 224.049C168.743 219.544 164.961 215.061 160.85 212.809" stroke="#263238" stroke-linecap="round" stroke-linejoin="round"/>
<path d="M142.304 213.538C140.258 214.377 138.156 215.248 136.393 216.534C135.753 216.993 135.164 217.515 134.634 218.094C134.208 218.493 133.94 219.028 133.878 219.603C133.889 219.871 133.962 220.133 134.089 220.369C134.217 220.606 134.397 220.812 134.616 220.971C134.927 221.223 135.27 221.435 135.636 221.6C136.49 221.997 137.492 222.385 137.854 223.228C137.942 223.405 137.975 223.603 137.947 223.798C137.901 223.969 137.812 224.126 137.687 224.254C136.982 225.098 135.739 225.75 135.831 226.84C135.892 227.683 136.759 228.208 137.53 228.582C138.3 228.956 139.2 229.343 139.464 230.15" stroke="#263238" stroke-linecap="round" stroke-linejoin="round"/>
<path d="M130.189 170.779C130.491 168.955 132.43 167.779 134.295 167.483C136.161 167.186 138.077 167.483 139.956 167.323C141.528 167.17 143.048 166.688 144.413 165.908C145.779 165.129 146.959 164.07 147.872 162.804" stroke="white" stroke-linecap="round" stroke-linejoin="round"/>
<path d="M132.3 165.654C135.669 163.698 140.402 165.731 143.687 163.643C144.616 162.978 145.426 162.164 146.081 161.235" stroke="white" stroke-linecap="round" stroke-linejoin="round"/>
<path d="M175.271 240.488C163.207 242.855 158.706 251.578 158.706 251.578L144.415 273.699" stroke="#263238" stroke-linecap="round" stroke-linejoin="round"/>
<path d="M165.073 238.099C166.073 237.187 167.207 236.428 168.437 235.846" stroke="#263238" stroke-linecap="round" stroke-linejoin="round"/>
<path d="M156.637 254.797C156.637 254.797 158.159 246.808 162.53 240.921" stroke="#263238" stroke-linecap="round" stroke-linejoin="round"/>
<path d="M119.443 271.843C119.443 271.843 118.817 247.369 116.659 243.63" stroke="#263238" stroke-linecap="round" stroke-linejoin="round"/>
<path d="M169.833 224.04C169.833 224.04 176.793 228.144 179.884 232.002C182.974 235.86 190.277 238.422 191.948 243.63C191.948 243.63 182.329 273.416 172.251 284.182C162.173 294.948 156.623 299.367 156.623 299.367C156.623 299.367 132.379 295.226 116.654 282.248L122.278 269.549C122.278 269.549 138.133 271.519 144.401 273.708C150.67 275.896 156.623 289.152 156.623 289.152" stroke="#263238" stroke-linecap="round" stroke-linejoin="round"/>
<path d="M144.415 273.708C144.415 273.708 155.514 275.828 159.119 280.794" stroke="#263238" stroke-linecap="round" stroke-linejoin="round"/>
<path d="M176.353 278.815L168.437 313.038H119.972L118.32 301.077" stroke="#263238" stroke-linecap="round" stroke-linejoin="round"/>
<path d="M140.843 297.689C138.165 303.078 134.634 301.888 134.634 301.888C107.328 302.905 97.2683 292.878 97.2683 292.878C97.2683 292.878 95.8763 278.774 101.245 259.74C106.613 240.707 116.668 224.04 116.668 224.04C121.127 221.126 131.075 218.851 133.883 218.249L134.634 218.094" stroke="#263238" stroke-linecap="round" stroke-linejoin="round"/>
<path d="M134.648 301.888C134.648 301.888 133.205 301.656 133.572 292.253" stroke="#263238" stroke-linecap="round" stroke-linejoin="round"/>
<path d="M117.406 282.851C117.406 282.851 110.585 280.488 102.136 286.234" stroke="#263238" stroke-linecap="round" stroke-linejoin="round"/>
<path d="M103.667 280.794C103.667 280.794 112.603 278.181 116.659 282.367" stroke="#263238" stroke-linecap="round" stroke-linejoin="round"/>
<path d="M115.694 282.13L116.854 282.7L121.271 271.856C121.271 271.856 116.696 271.122 109.448 279.991C111.711 280.017 113.904 280.768 115.694 282.13Z" fill="#999999" stroke="#263238" stroke-miterlimit="10"/>
<path d="M133.558 292.253V297.073C133.558 297.073 139.808 298.897 144.434 296.275L133.558 292.253Z" fill="#999999" stroke="#263238" stroke-miterlimit="10"/>
<path d="M167.434 225.645C167.439 225.734 167.43 225.823 167.407 225.91C167.212 226.662 162.446 244.341 147.195 252.207C147.062 252.277 146.914 252.313 146.763 252.312C146.556 252.312 146.354 252.244 146.191 252.118C146.028 251.992 145.912 251.816 145.863 251.618C145.813 251.421 145.832 251.212 145.917 251.026C146.002 250.84 146.148 250.688 146.332 250.593C160.252 243.42 165.156 227.072 165.583 225.568L167.434 225.645Z" fill="#263238"/>
<path d="M134.616 220.958C132.205 226.37 130.904 232.196 130.788 238.103C130.788 238.582 130.788 239.07 130.788 239.567C130.788 239.69 130.788 239.813 130.788 239.936C130.649 239.941 130.511 239.955 130.375 239.977C129.873 240.055 129.386 240.209 128.932 240.433C128.932 239.763 128.932 239.111 128.932 238.468C129.131 228.235 132.24 221.272 133.896 218.263L134.648 218.108C134.222 218.506 133.953 219.042 133.892 219.617C133.906 219.879 133.978 220.135 134.103 220.366C134.228 220.598 134.403 220.8 134.616 220.958Z" fill="#263238"/>
<path d="M152.888 248.094C153.974 249.576 153.083 252.039 150.893 253.593C148.703 255.148 146.048 255.203 144.958 253.721C143.868 252.239 144.759 249.777 146.949 248.222C149.139 246.667 151.816 246.612 152.888 248.094Z" fill="white" stroke="#263238" stroke-linecap="round" stroke-linejoin="round"/>
<path d="M150.187 247.214C150.958 248.263 150.327 250.005 148.795 251.104C147.264 252.203 145.366 252.244 144.619 251.195C143.872 250.146 144.48 248.404 146.011 247.305C147.543 246.206 149.417 246.17 150.187 247.214Z" fill="white" stroke="#263238" stroke-linecap="round" stroke-linejoin="round"/>
<path d="M137.924 265.723C137.726 265.852 137.486 265.902 137.252 265.862C137.018 265.823 136.809 265.696 136.667 265.509C136.525 265.322 136.461 265.089 136.489 264.858C136.516 264.626 136.633 264.413 136.815 264.264C136.894 264.2 140.007 261.596 138.643 252.827C138.527 252.084 138.379 251.291 138.179 250.456C137.59 247.798 136.681 244.432 134.82 241.961C134.377 241.309 133.771 240.78 133.06 240.426C132.349 240.071 131.557 239.902 130.76 239.936C130.621 239.941 130.483 239.955 130.347 239.977C129.845 240.055 129.358 240.209 128.904 240.433C127.518 241.137 126.466 242.344 125.971 243.799L125.804 244.255C124.752 247.051 123.892 249.913 123.229 252.823C122.487 256.402 122.236 260.155 123.554 262.777C123.907 263.497 124.41 264.135 125.03 264.651C125.651 265.167 126.374 265.55 127.155 265.773C127.364 265.841 127.542 265.98 127.657 266.165C127.772 266.35 127.816 266.569 127.781 266.783C127.747 266.997 127.636 267.192 127.468 267.333C127.301 267.474 127.087 267.551 126.867 267.552C126.769 267.551 126.672 267.536 126.579 267.506C125.564 267.207 124.624 266.703 123.817 266.028C123.011 265.353 122.355 264.521 121.893 263.584C120.408 260.634 120.603 256.617 121.355 252.823C122.021 249.703 122.924 246.636 124.055 243.648L124.222 243.192C124.587 242.107 125.198 241.117 126.009 240.298C126.82 239.479 127.81 238.851 128.904 238.463C129.283 238.334 129.672 238.24 130.069 238.181C130.305 238.149 130.533 238.126 130.774 238.112C131.86 238.083 132.936 238.322 133.904 238.807C134.872 239.292 135.7 240.008 136.314 240.889C138.383 243.625 139.367 247.241 139.993 250.078C140.212 251.054 140.379 251.97 140.504 252.837C141.97 262.668 138.105 265.595 137.924 265.723Z" fill="#263238" stroke="#263238" stroke-miterlimit="10"/>
<path d="M126.217 267.392C126.217 267.392 129.581 268.76 130.435 267.392C131.289 266.024 130.598 265.381 129.433 265.272C128.272 265.213 127.109 265.213 125.948 265.272L126.217 267.392Z" fill="#263238" stroke="#263238" stroke-miterlimit="10"/>
<path d="M127.762 266.936C127.702 267.119 127.584 267.278 127.426 267.391C127.267 267.504 127.077 267.565 126.881 267.565C126.783 267.565 126.686 267.55 126.593 267.52C125.578 267.22 124.638 266.717 123.831 266.042C123.025 265.367 122.369 264.535 121.907 263.598C120.422 260.648 120.617 256.63 121.369 252.836H123.225C122.482 256.416 122.232 260.169 123.549 262.791C123.902 263.51 124.405 264.149 125.026 264.665C125.646 265.181 126.37 265.563 127.15 265.787C127.267 265.822 127.376 265.88 127.471 265.957C127.565 266.034 127.643 266.129 127.7 266.236C127.757 266.343 127.792 266.46 127.803 266.58C127.813 266.7 127.8 266.821 127.762 266.936Z" fill="white" stroke="#263238" stroke-linecap="round" stroke-linejoin="round"/>
<path d="M134.824 264.733C134.685 264.897 134.581 265.087 134.521 265.292C134.461 265.497 134.446 265.712 134.476 265.924C134.569 266.236 134.77 266.506 135.045 266.688C135.32 266.87 135.65 266.951 135.98 266.918C136.639 266.832 137.241 266.506 137.669 266.006C138.133 265.495 139.743 262.152 138.253 262.727C137.172 263.128 135.548 263.808 134.824 264.733Z" fill="#263238" stroke="#263238" stroke-miterlimit="10"/>
<path d="M137.924 265.723C137.726 265.852 137.486 265.902 137.252 265.862C137.018 265.823 136.809 265.696 136.667 265.509C136.525 265.322 136.461 265.089 136.488 264.858C136.516 264.626 136.633 264.413 136.815 264.264C136.894 264.2 140.007 261.596 138.643 252.827H140.499C141.97 262.668 138.105 265.595 137.924 265.723Z" fill="white" stroke="#263238" stroke-linecap="round" stroke-linejoin="round"/>
<path opacity="0.2" d="M146.248 185.125C146.248 185.125 152.09 182.143 157.458 185.125C157.458 185.125 157.546 189.525 155.519 191.336C154.8 191.979 151.505 192.088 150.257 191.979C145.19 191.527 146.248 185.125 146.248 185.125Z" fill="white"/>
<path opacity="0.2" d="M142.583 185.125C142.583 185.125 136.741 182.143 131.377 185.125C131.377 185.125 131.289 189.525 133.312 191.336C134.031 191.979 137.33 192.088 138.574 191.979C143.641 191.527 142.583 185.125 142.583 185.125Z" fill="white"/>
<path d="M146.248 185.125C146.248 185.125 152.09 182.143 157.458 185.125C157.458 185.125 157.546 189.525 155.519 191.336C154.8 191.979 151.505 192.088 150.257 191.979C145.19 191.527 146.248 185.125 146.248 185.125Z" stroke="#263238" stroke-miterlimit="10"/>
<path d="M142.583 185.125C142.583 185.125 136.741 182.143 131.377 185.125C131.377 185.125 131.289 189.525 133.312 191.336C134.031 191.979 137.33 192.088 138.574 191.979C143.641 191.527 142.583 185.125 142.583 185.125Z" stroke="#263238" stroke-miterlimit="10"/>
<path d="M142.583 185.125C142.583 185.125 143.891 184.181 146.248 185.125" stroke="#263238" stroke-miterlimit="10"/>
<path d="M157.458 185.125L159.899 186.238" stroke="#263238" stroke-miterlimit="10"/>
<path d="M64.0364 325.176L81.209 309.235H217.504L227.824 325.176H64.0364Z" fill="white" stroke="#263238" stroke-linecap="round" stroke-linejoin="round"/>
<path d="M81.2092 317.931L97.1059 307.452L118.32 307.944L108.121 317.931H81.2092Z" fill="white" stroke="#263238" stroke-linecap="round" stroke-linejoin="round"/>
<path d="M108.121 321.236L118.32 311.195V307.944L108.121 317.93V321.236Z" fill="white" stroke="#263238" stroke-linecap="round" stroke-linejoin="round"/>
<path d="M107.393 317.096C107.393 317.096 105.244 317.515 105.244 319.344C105.244 321.173 107.1 321.711 107.1 321.711" stroke="#263238" stroke-width="2" stroke-linecap="round" stroke-linejoin="round"/>
<path d="M105.245 317.096C105.245 317.096 103.096 317.515 103.096 319.344C103.096 321.173 104.952 321.711 104.952 321.711" stroke="#263238" stroke-width="2" stroke-linecap="round" stroke-linejoin="round"/>
<path d="M103.096 317.096C103.096 317.096 100.948 317.515 100.948 319.344C100.948 321.173 102.804 321.711 102.804 321.711" stroke="#263238" stroke-width="2" stroke-linecap="round" stroke-linejoin="round"/>
<path d="M100.948 317.096C100.948 317.096 98.7996 317.515 98.7996 319.344C98.7996 321.173 100.656 321.711 100.656 321.711" stroke="#263238" stroke-width="2" stroke-linecap="round" stroke-linejoin="round"/>
<path d="M98.7994 317.096C98.7994 317.096 96.6511 317.515 96.6511 319.344C96.6511 321.173 98.5071 321.711 98.5071 321.711" stroke="#263238" stroke-width="2" stroke-linecap="round" stroke-linejoin="round"/>
<path d="M96.6513 317.096C96.6513 317.096 94.5029 317.515 94.5029 319.344C94.5029 321.173 96.3589 321.711 96.3589 321.711" stroke="#263238" stroke-width="2" stroke-linecap="round" stroke-linejoin="round"/>
<path d="M94.5028 317.096C94.5028 317.096 92.3545 317.515 92.3545 319.344C92.3545 321.173 94.2105 321.711 94.2105 321.711" stroke="#263238" stroke-width="2" stroke-linecap="round" stroke-linejoin="round"/>
<path d="M92.3546 317.096C92.3546 317.096 90.2063 317.515 90.2063 319.344C90.2063 321.173 92.0623 321.711 92.0623 321.711" stroke="#263238" stroke-width="2" stroke-linecap="round" stroke-linejoin="round"/>
<path d="M89.9418 317.096C89.9418 317.096 87.7935 317.515 87.7935 319.344C87.7935 321.173 89.6495 321.711 89.6495 321.711" stroke="#263238" stroke-width="2" stroke-linecap="round" stroke-linejoin="round"/>
<path d="M87.5243 317.096C87.5243 317.096 85.376 317.515 85.376 319.344C85.376 321.173 87.232 321.711 87.232 321.711" stroke="#263238" stroke-width="2" stroke-linecap="round" stroke-linejoin="round"/>
<path d="M84.8378 317.096C84.8378 317.096 82.6895 317.515 82.6895 319.344C82.6895 321.173 84.5455 321.711 84.5455 321.711" stroke="#263238" stroke-width="2" stroke-linecap="round" stroke-linejoin="round"/>
<path d="M98.456 310.019C96.974 310.822 95.7994 312.079 95.1106 313.599C97.064 312.992 98.6092 311.624 100.089 310.256L98.4839 314.169C99.2229 314.11 99.9375 313.88 100.569 313.499C101.202 313.118 101.733 312.596 102.122 311.975C101.994 312.029 101.88 312.109 101.787 312.209C101.693 312.309 101.622 312.428 101.578 312.557C101.534 312.686 101.519 312.823 101.532 312.959C101.546 313.094 101.589 313.225 101.658 313.343C103.003 313.152 103.862 311.875 104.539 310.717C104.664 311.361 104.712 312.018 104.683 312.673C105.808 312.831 106.956 312.688 108.005 312.258" stroke="#263238" stroke-width="0.75" stroke-linecap="round" stroke-linejoin="round"/>
<path d="M216.595 293.265H169.819V318.505H216.595V293.265Z" fill="white" stroke="#263238" stroke-linecap="round" stroke-linejoin="round"/>
<path d="M169.638 318.5L162.117 311.473V286.234L169.638 293.265V318.5Z" fill="white" stroke="#263238" stroke-linecap="round" stroke-linejoin="round"/>
<path d="M216.595 293.265L209.073 286.234H162.302L169.819 293.265H216.595Z" fill="white" stroke="#263238" stroke-linecap="round" stroke-linejoin="round"/>
<path d="M199.395 302.732H195.26V298.482H189.432V302.732H184.922V308.459H189.432V312.705H195.26V308.459H199.395V302.732Z" fill="#92E3A9" stroke="#263238" stroke-miterlimit="10"/>
<path d="M192.801 293.265L185.28 286.234" stroke="#263238" stroke-linecap="round" stroke-linejoin="round"/>
<path d="M93.9303 185.994C99.3863 180.632 99.3863 171.938 93.9303 166.576C88.4742 161.214 79.6283 161.214 74.1722 166.576C68.7162 171.938 68.7162 180.632 74.1722 185.994C79.6283 191.356 88.4742 191.356 93.9303 185.994Z" fill="white" stroke="#263238" stroke-linecap="round" stroke-linejoin="round"/>
<path d="M95.6719 174.181C95.6718 175.1 95.3785 175.996 94.8333 176.743C94.2882 177.49 93.5186 178.05 92.6327 178.344L86.3919 180.41L78.7962 182.932C77.6773 183.293 76.4583 183.205 75.4049 182.687C74.3515 182.169 73.5492 181.263 73.1727 180.167C72.7962 179.07 72.876 177.871 73.3949 176.832C73.9137 175.793 74.8295 174.997 75.9426 174.619L82.8423 172.339L89.7744 170.059C90.4451 169.837 91.1597 169.775 91.8595 169.878C92.5593 169.981 93.2243 170.245 93.7996 170.65C94.375 171.055 94.8444 171.588 95.169 172.206C95.4937 172.824 95.6645 173.508 95.6672 174.204L95.6719 174.181Z" fill="white"/>
<path d="M95.6719 174.181C95.6718 175.1 95.3785 175.996 94.8333 176.743C94.2882 177.49 93.5186 178.05 92.6327 178.344L86.3919 180.41C86.2255 177.389 84.9667 174.525 82.8423 172.334L89.7744 170.054C90.4451 169.833 91.1597 169.771 91.8595 169.873C92.5593 169.976 93.2243 170.241 93.7996 170.646C94.375 171.05 94.8444 171.584 95.169 172.201C95.4937 172.819 95.6645 173.504 95.6672 174.199L95.6719 174.181Z" fill="#92E3A9"/>
<path d="M95.6719 174.181C95.6718 175.1 95.3785 175.996 94.8333 176.743C94.2882 177.49 93.5186 178.05 92.6327 178.344L86.3919 180.41L78.7962 182.932C77.6773 183.293 76.4583 183.205 75.4049 182.687C74.3515 182.169 73.5492 181.263 73.1727 180.167C72.7962 179.07 72.876 177.871 73.3949 176.832C73.9137 175.793 74.8295 174.997 75.9426 174.619L82.8423 172.339L89.7744 170.059C90.4451 169.837 91.1597 169.775 91.8595 169.878C92.5593 169.981 93.2243 170.245 93.7996 170.65C94.375 171.055 94.8444 171.588 95.169 172.206C95.4937 172.824 95.6645 173.508 95.6672 174.204L95.6719 174.181Z" stroke="#263238" stroke-linecap="round" stroke-linejoin="round"/>
<path d="M86.3919 180.41C86.2499 177.383 84.9876 174.511 82.8423 172.334" stroke="#263238" stroke-linecap="round" stroke-linejoin="round"/>
<path d="M94.178 172.544C94.4709 173.029 94.6189 173.585 94.6049 174.149" stroke="white" stroke-linecap="round" stroke-linejoin="round"/>
<path d="M84.6055 173L90.1735 171.176C90.6729 171.008 91.204 170.95 91.7288 171.008C92.2535 171.065 92.7587 171.236 93.208 171.509" stroke="white" stroke-linecap="round" stroke-linejoin="round"/>
<path d="M178.98 157.658C186.085 154.703 189.408 146.646 186.4 139.662C183.393 132.679 175.195 129.414 168.089 132.37C160.983 135.325 157.661 143.382 160.668 150.365C163.676 157.349 171.874 160.614 178.98 157.658Z" fill="white" stroke="#263238" stroke-linecap="round" stroke-linejoin="round"/>
<path d="M178.352 150.761L166.167 146.753C165.154 146.418 164.318 145.701 163.842 144.761C163.366 143.82 163.29 142.733 163.629 141.737C163.97 140.741 164.699 139.919 165.656 139.451C166.613 138.983 167.72 138.908 168.733 139.242L180.918 143.246C181.93 143.582 182.766 144.298 183.242 145.238C183.718 146.179 183.795 147.266 183.456 148.262C183.115 149.258 182.387 150.08 181.43 150.549C180.473 151.017 179.366 151.093 178.352 150.761Z" fill="#92E3A9"/>
<path d="M169.425 146.433L171.466 141.641" stroke="#263238" stroke-linecap="round" stroke-linejoin="round"/>
<path d="M176.139 148.627L178.171 143.848" stroke="#263238" stroke-linecap="round" stroke-linejoin="round"/>
<path d="M171.109 146.716C171.337 146.716 171.522 146.535 171.522 146.31C171.522 146.086 171.337 145.905 171.109 145.905C170.881 145.905 170.696 146.086 170.696 146.31C170.696 146.535 170.881 146.716 171.109 146.716Z" fill="#263238"/>
<path d="M175.169 147.505C175.169 147.585 175.145 147.664 175.1 147.73C175.054 147.797 174.99 147.849 174.914 147.88C174.839 147.911 174.756 147.919 174.676 147.903C174.596 147.887 174.522 147.849 174.464 147.792C174.406 147.735 174.367 147.663 174.351 147.584C174.335 147.505 174.343 147.424 174.375 147.35C174.406 147.275 174.459 147.212 174.527 147.168C174.595 147.123 174.675 147.099 174.756 147.099C174.866 147.099 174.971 147.142 175.048 147.218C175.126 147.294 175.169 147.397 175.169 147.505Z" fill="#263238"/>
<path d="M172.71 143.105C172.938 143.105 173.123 142.923 173.123 142.699C173.123 142.475 172.938 142.293 172.71 142.293C172.482 142.293 172.297 142.475 172.297 142.699C172.297 142.923 172.482 143.105 172.71 143.105Z" fill="#263238"/>
<path d="M176.709 143.857C176.709 143.937 176.685 144.016 176.64 144.082C176.594 144.149 176.53 144.201 176.455 144.232C176.379 144.263 176.296 144.271 176.216 144.255C176.136 144.239 176.062 144.201 176.004 144.144C175.947 144.087 175.907 144.015 175.891 143.936C175.876 143.857 175.884 143.776 175.915 143.702C175.946 143.628 175.999 143.564 176.067 143.52C176.135 143.475 176.215 143.451 176.297 143.451C176.406 143.451 176.511 143.494 176.589 143.57C176.666 143.646 176.709 143.749 176.709 143.857Z" fill="#263238"/>
<path d="M178.352 150.761L166.167 146.753C165.154 146.418 164.318 145.701 163.842 144.761C163.366 143.82 163.29 142.733 163.629 141.737C163.97 140.741 164.699 139.919 165.656 139.451C166.613 138.983 167.72 138.908 168.733 139.242L180.918 143.246C181.93 143.582 182.766 144.298 183.242 145.238C183.718 146.179 183.795 147.266 183.456 148.262C183.115 149.258 182.387 150.08 181.43 150.549C180.473 151.017 179.366 151.093 178.352 150.761Z" stroke="#263238" stroke-linecap="round" stroke-linejoin="round"/>
<path d="M120.793 157.998C128.509 157.998 134.764 151.85 134.764 144.268C134.764 136.685 128.509 130.537 120.793 130.537C113.077 130.537 106.822 136.685 106.822 144.268C106.822 151.85 113.077 157.998 120.793 157.998Z" fill="white" stroke="#263238" stroke-linecap="round" stroke-linejoin="round"/>
<path d="M128.797 144.619V150.246C128.797 151.673 127.869 152.831 126.732 152.831H114.854C113.712 152.831 112.789 151.673 112.789 150.246V144.619C112.789 143.191 113.717 142.033 114.854 142.033H116.807V138.768H124.695V142.033H126.718C127.869 142.033 128.797 143.191 128.797 144.619Z" fill="white" stroke="#263238" stroke-linecap="round" stroke-linejoin="round"/>
<path d="M128.792 145.266H112.789V148.755H128.792V145.266Z" fill="#92E3A9" stroke="#263238" stroke-miterlimit="10"/>
<path d="M117.897 134.947H123.762C124.424 134.947 125.059 135.205 125.528 135.665C125.996 136.125 126.259 136.749 126.259 137.4V139.949H115.396V137.4C115.396 137.078 115.461 136.758 115.587 136.46C115.713 136.162 115.897 135.892 116.129 135.664C116.362 135.436 116.637 135.255 116.941 135.132C117.244 135.009 117.569 134.946 117.897 134.947Z" fill="#92E3A9" stroke="#263238" stroke-miterlimit="10"/>
<path d="M117.294 135.102V139.949" stroke="#263238" stroke-linecap="round" stroke-linejoin="round"/>
<path d="M119.86 134.947V139.949" stroke="#263238" stroke-linecap="round" stroke-linejoin="round"/>
<path d="M122.426 134.947V139.949" stroke="#263238" stroke-linecap="round" stroke-linejoin="round"/>
<path d="M124.992 135.229V139.949" stroke="#263238" stroke-linecap="round" stroke-linejoin="round"/>
<path d="M84.9992 219.327C86.2475 211.844 81.0868 204.784 73.4724 203.557C65.8581 202.33 58.6735 207.402 57.4252 214.885C56.177 222.368 61.3377 229.429 68.952 230.656C76.5664 231.882 83.751 226.811 84.9992 219.327Z" fill="white" stroke="#263238" stroke-linecap="round" stroke-linejoin="round"/>
<path d="M78.2994 220.648C79.8211 217.486 77.7288 213.377 73.626 211.47C69.5233 209.563 64.9638 210.581 63.4421 213.743C61.9204 216.905 64.0127 221.015 68.1154 222.922C72.2181 224.828 76.7776 223.81 78.2994 220.648Z" fill="#92E3A9" stroke="#263238" stroke-linecap="round" stroke-linejoin="round"/>
<path d="M78.8067 219.573C80.2342 216.606 78.0655 212.656 73.9628 210.749C69.8601 208.842 65.377 209.701 63.9495 212.668C62.522 215.634 64.6907 219.585 68.7934 221.492C72.8961 223.398 77.3792 222.539 78.8067 219.573Z" fill="#92E3A9" stroke="#263238" stroke-linecap="round" stroke-linejoin="round"/>
<path d="M73.748 212.061L68.6765 219.07" stroke="#263238" stroke-linecap="round" stroke-linejoin="round"/>
<path d="M70.6948 210.926C71.3745 211.016 72.0441 211.168 72.6947 211.382" stroke="white" stroke-linecap="round" stroke-linejoin="round"/>
<path d="M66.1893 217.524C66.1893 217.524 63.6002 214.738 66.129 212.052C66.7126 211.467 67.4725 211.084 68.2959 210.958" stroke="white" stroke-linecap="round" stroke-linejoin="round"/>
<path d="M232.163 219.335C233.412 211.852 228.251 204.792 220.636 203.565C213.022 202.338 205.838 207.41 204.589 214.893C203.341 222.376 208.502 229.437 216.116 230.664C223.73 231.89 230.915 226.819 232.163 219.335Z" fill="white" stroke="#263238" stroke-linecap="round" stroke-linejoin="round"/>
<path d="M226.395 218.49C226.288 218.641 226.181 218.796 226.07 218.946C223.977 221.796 220.753 224.455 218.363 224.979V224.943C216.043 224.432 212.92 221.901 210.828 219.138C210.712 218.987 210.6 218.832 210.493 218.682C208.48 215.846 207.631 212.868 209.872 211.637C214.428 209.138 218.363 214.496 218.363 214.496C218.363 214.496 222.307 209.179 226.854 211.673C229.035 212.868 228.288 215.723 226.395 218.49Z" fill="#92E3A9" stroke="#263238" stroke-miterlimit="10"/>
<path d="M226.395 218.491C226.288 218.641 226.181 218.796 226.07 218.947H224.919L223.601 220.657L222.706 215.586L221.314 219.033H218.024L216.34 221.792L215.041 216.206L213.366 219.12H210.827C210.711 218.969 210.6 218.814 210.493 218.664H213.096L215.226 214.957L216.535 220.588L217.774 218.559H221.022L222.878 213.89L223.871 219.526L224.683 218.472L226.395 218.491Z" fill="white"/>
<path d="M204.925 190.168C212.641 190.168 218.896 184.021 218.896 176.438C218.896 168.855 212.641 162.708 204.925 162.708C197.209 162.708 190.954 168.855 190.954 176.438C190.954 184.021 197.209 190.168 204.925 190.168Z" fill="white" stroke="#263238" stroke-linecap="round" stroke-linejoin="round"/>
<path d="M203.877 170.091C204.011 170.387 203.171 171.044 202.021 171.559C200.87 172.074 199.794 172.252 199.659 171.951C199.524 171.65 200.36 170.998 201.515 170.483C202.67 169.968 203.738 169.808 203.877 170.091Z" fill="white" stroke="#263238" stroke-linecap="round" stroke-linejoin="round"/>
<path d="M210.164 182.827L205.983 184.815L202.234 177.227L199.645 171.983L203.826 169.99L206.35 175.107L210.164 182.827Z" fill="white" stroke="#263238" stroke-linecap="round" stroke-linejoin="round"/>
<path d="M200.42 173.547L202.234 172.722L200.42 173.547Z" fill="#92E3A9"/>
<path d="M200.42 173.547L202.234 172.722" stroke="#263238" stroke-linecap="round" stroke-linejoin="round"/>
<path d="M201.209 175.198L203.023 174.373L201.209 175.198Z" fill="#92E3A9"/>
<path d="M201.209 175.198L203.023 174.373" stroke="#263238" stroke-linecap="round" stroke-linejoin="round"/>
<path d="M207.584 184.053L209.742 186.835L208.665 183.538L207.584 184.053Z" fill="white" stroke="#263238" stroke-linecap="round" stroke-linejoin="round"/>
<path d="M210.164 182.827C209.185 183.79 207.936 184.444 206.577 184.705L205.983 184.815L202.234 177.227L206.35 175.107L210.164 182.827Z" fill="#92E3A9" stroke="#263238" stroke-miterlimit="10"/>
<path d="M203.023 178.668L204.73 177.893" stroke="#263238" stroke-linecap="round" stroke-linejoin="round"/>
<path d="M203.96 180.433L205.635 179.68L203.96 180.433Z" fill="#92E3A9"/>
<path d="M203.96 180.433L205.635 179.68" stroke="#263238" stroke-linecap="round" stroke-linejoin="round"/>
<path d="M201.093 171.29L199.77 168.367L200.81 167.788L202.234 170.747L201.093 171.29Z" fill="white" stroke="#263238" stroke-linecap="round" stroke-linejoin="round"/>
<path d="M203.362 167.432L203.046 166.748L197.478 169.197L197.794 169.881C197.924 170.173 199.274 169.854 200.814 169.179C202.355 168.504 203.492 167.72 203.362 167.432Z" fill="white" stroke="#263238" stroke-linecap="round" stroke-linejoin="round"/>
<path d="M203.046 166.748C202.916 166.461 201.561 166.776 200.025 167.45C198.49 168.125 197.348 168.91 197.478 169.197C197.608 169.484 198.963 169.17 200.499 168.49C202.035 167.811 203.176 167.036 203.046 166.748Z" fill="white" stroke="#263238" stroke-linecap="round" stroke-linejoin="round"/>
</svg>
