<svg width="212" height="222" viewBox="0 0 212 222" fill="none" xmlns="http://www.w3.org/2000/svg">
<path d="M106 212.685C161.767 212.685 206.976 185.354 206.976 151.639C206.976 117.925 161.767 90.5938 106 90.5938C50.2327 90.5938 5.02441 117.925 5.02441 151.639C5.02441 185.354 50.2327 212.685 106 212.685Z" fill="#F0F0F0"/>
<path d="M45.0077 164.116C62.4907 164.116 76.6635 155.898 76.6635 145.761C76.6635 135.624 62.4907 127.406 45.0077 127.406C27.5246 127.406 13.3518 135.624 13.3518 145.761C13.3518 155.898 27.5246 164.116 45.0077 164.116Z" fill="#E0E0E0"/>
<path d="M25.652 176.046L75.26 206.029C75.5139 206.163 75.7941 206.232 76.0783 206.232C76.3625 206.232 76.6427 206.163 76.8966 206.029L164.622 152.989C164.721 152.953 164.806 152.887 164.866 152.798C164.926 152.709 164.959 152.603 164.959 152.494C164.959 152.385 164.926 152.279 164.866 152.19C164.806 152.101 164.721 152.035 164.622 151.999L115.014 122.016C114.761 121.882 114.481 121.813 114.198 121.812C113.915 121.812 113.635 121.882 113.382 122.016L25.652 175.056C25.5537 175.091 25.4685 175.158 25.4082 175.247C25.3478 175.336 25.3154 175.442 25.3154 175.551C25.3154 175.66 25.3478 175.766 25.4082 175.855C25.4685 175.943 25.5537 176.01 25.652 176.046Z" fill="#E0E0E0"/>
<path d="M163.126 191.031C178.073 191.031 190.19 183.706 190.19 174.67C190.19 165.633 178.073 158.308 163.126 158.308C148.179 158.308 136.062 165.633 136.062 174.67C136.062 183.706 148.179 191.031 163.126 191.031Z" fill="#E0E0E0"/>
<path d="M48.0349 160.79C47.9421 160.79 47.8502 160.771 47.7646 160.734C47.6789 160.696 47.6011 160.642 47.5357 160.573C47.4703 160.504 47.4185 160.422 47.3834 160.332C47.3483 160.242 47.3305 160.146 47.3311 160.049V112.643C47.3311 112.447 47.4052 112.26 47.5372 112.122C47.6692 111.983 47.8482 111.906 48.0349 111.906C48.2216 111.906 48.4006 111.983 48.5326 112.122C48.6646 112.26 48.7387 112.447 48.7387 112.643V160.049C48.7388 160.245 48.6647 160.432 48.5329 160.571C48.401 160.71 48.222 160.789 48.0349 160.79Z" fill="#455A64"/>
<path d="M76.0445 143.532C75.9055 143.533 75.7692 143.492 75.6525 143.413C75.5357 143.334 75.4435 143.221 75.3873 143.088L61.5055 106.294C61.4369 106.112 61.4401 105.909 61.5145 105.729C61.5888 105.55 61.7282 105.409 61.9019 105.337C62.0757 105.265 62.2696 105.268 62.4409 105.346C62.6123 105.424 62.7471 105.57 62.8157 105.752L76.6974 142.524C76.7396 142.636 76.755 142.756 76.7424 142.876C76.7299 142.995 76.6896 143.109 76.6253 143.209C76.5609 143.308 76.4744 143.389 76.3732 143.446C76.2719 143.502 76.1591 143.532 76.0445 143.532Z" fill="#455A64"/>
<path d="M74.3739 139.114C74.2785 139.114 74.1842 139.093 74.0967 139.054C74.0092 139.014 73.9304 138.956 73.8651 138.883L48.0307 110.259L22.2473 138.759C22.1849 138.833 22.1088 138.894 22.0235 138.937C21.9382 138.98 21.8454 139.005 21.7509 139.009C21.6563 139.014 21.5618 138.999 21.473 138.964C21.3843 138.93 21.3031 138.877 21.2343 138.808C21.1655 138.74 21.1106 138.658 21.0728 138.567C21.0349 138.477 21.015 138.379 21.0142 138.28C21.0134 138.18 21.0316 138.082 21.0679 137.99C21.1042 137.899 21.1578 137.816 21.2255 137.747L47.5135 108.678C47.5794 108.605 47.6589 108.547 47.7472 108.507C47.8354 108.467 47.9305 108.447 48.0265 108.447C48.1218 108.447 48.2161 108.468 48.3035 108.508C48.391 108.547 48.4698 108.605 48.5353 108.678L74.8784 137.871C74.9419 137.941 74.9915 138.024 75.0244 138.114C75.0573 138.204 75.0728 138.3 75.07 138.397C75.0672 138.493 75.0463 138.588 75.0083 138.676C74.9703 138.765 74.9161 138.844 74.8487 138.91C74.7214 139.039 74.5513 139.112 74.3739 139.114Z" fill="#455A64"/>
<path d="M20.0254 143.532C19.9367 143.532 19.8489 143.514 19.7668 143.478C19.6804 143.444 19.6015 143.391 19.5347 143.324C19.4678 143.257 19.4143 143.177 19.3772 143.088C19.3401 143 19.3202 142.904 19.3187 142.807C19.3172 142.71 19.334 142.614 19.3682 142.524L33.25 105.73C33.3186 105.548 33.4534 105.402 33.6247 105.324C33.7961 105.246 33.99 105.243 34.1637 105.314C34.3374 105.386 34.4768 105.527 34.5511 105.707C34.6255 105.886 34.6287 106.089 34.5601 106.271L20.6784 143.066C20.6266 143.203 20.5367 143.321 20.4203 143.404C20.3039 143.487 20.1663 143.531 20.0254 143.532Z" fill="#455A64"/>
<path d="M75.086 137.977L76.9219 143.048C76.9258 143.091 76.9258 143.134 76.9219 143.177V143.27C76.8691 143.407 76.7714 143.52 76.6463 143.589C76.4729 143.682 76.2811 143.729 76.0867 143.729C75.8922 143.729 75.7005 143.682 75.527 143.589C75.4303 143.539 75.3538 143.454 75.3107 143.35V143.283L73.6147 138.528L75.086 137.977Z" fill="#111547"/>
<path d="M20.9795 137.977L19.1436 143.048C19.1396 143.091 19.1396 143.134 19.1436 143.177C19.1393 143.207 19.1393 143.239 19.1436 143.27C19.1933 143.409 19.2919 143.523 19.4192 143.589C19.5919 143.681 19.7829 143.729 19.9767 143.729C20.1705 143.729 20.3616 143.681 20.5343 143.589C20.6331 143.542 20.7105 143.456 20.7505 143.35V143.283L22.472 138.528L20.9795 137.977Z" fill="#111547"/>
<path d="M48.8449 156.381V160.577C48.8362 160.651 48.8099 160.721 48.7684 160.782C48.7269 160.842 48.6716 160.891 48.6074 160.923C48.4293 161.018 48.2325 161.067 48.0329 161.067C47.8333 161.067 47.6365 161.018 47.4584 160.923C47.3942 160.891 47.3389 160.842 47.2974 160.782C47.2559 160.721 47.2296 160.651 47.2209 160.577V156.381C47.4707 156.241 47.7496 156.168 48.0329 156.168C48.3162 156.168 48.5951 156.241 48.8449 156.381Z" fill="#111547"/>
<path d="M74.5391 107.999C74.5391 106.884 73.6063 105.703 71.6389 104.367C68.0053 101.898 59.8899 96.9429 54.8061 93.9903C54.8043 93.9797 54.7991 93.97 54.7914 93.9628C54.7838 93.9555 54.774 93.9512 54.7637 93.9504C50.8502 91.464 47.1996 79.6225 44.4945 70.627C43.5701 67.559 42.4423 65.823 41.1025 65.006C40.7845 64.8151 39.61 64.1402 39.3471 63.9759C36.6929 62.3065 33.2033 64.3089 28.8616 66.7998C24.859 69.0908 21.7341 72.0256 21.1066 79.8178C20.7208 84.5598 21.0854 93.6218 22.0055 100.49C23.3369 111.968 24.9735 111.986 27.3437 113.904C31.431 117.216 40.6318 121.851 44.5199 123.432C51.5498 126.327 57.2993 121.86 61.5817 119.645C65.5078 117.568 69.2981 115.222 72.9279 112.621C74.0006 111.808 74.5561 110.982 74.5433 110.112C74.5306 109.77 74.5391 108.358 74.5391 107.999Z" fill="#111547"/>
<path opacity="0.25" d="M74.5391 107.999C74.5391 106.884 73.6063 105.703 71.6389 104.367C68.0053 101.898 59.8899 96.9429 54.8061 93.9903C54.8043 93.9797 54.7991 93.97 54.7914 93.9628C54.7838 93.9555 54.774 93.9512 54.7637 93.9504C50.8502 91.464 47.1996 79.6225 44.4945 70.627C43.5701 67.559 42.4423 65.823 41.1025 65.006C40.7845 64.8151 39.61 64.1402 39.3471 63.9759C36.6929 62.3065 33.2033 64.3089 28.8616 66.7998C24.859 69.0908 21.7341 72.0256 21.1066 79.8178C20.7208 84.5598 21.0854 93.6218 22.0055 100.49C23.3369 111.968 24.9735 111.986 27.3437 113.904C31.431 117.216 40.6318 121.851 44.5199 123.432C51.5498 126.327 57.2993 121.86 61.5817 119.645C65.5078 117.568 69.2981 115.222 72.9279 112.621C74.0006 111.808 74.5561 110.982 74.5433 110.112C74.5306 109.77 74.5391 108.358 74.5391 107.999Z" fill="black"/>
<path d="M40.9456 64.9128C38.3126 63.4653 34.8909 65.4322 30.6594 67.8609C27.95 69.4194 25.6392 71.262 24.2358 74.7118L22.4719 73.6285C23.8754 70.1919 26.1819 68.3493 28.8828 66.7998C33.2288 64.3089 36.7141 62.3065 39.3726 63.9759L40.9456 64.9128Z" fill="#111547"/>
<path d="M71.6559 104.367C69.2984 102.764 69.2476 102.355 54.6959 93.9148C54.72 93.9209 54.743 93.9314 54.7637 93.9459C50.8544 91.4506 47.208 79.618 44.5029 70.627C41.7511 61.4895 37.1677 64.1357 30.6678 67.8653C26.6567 70.1519 23.5319 73.0912 22.8959 80.8834C22.2599 88.6756 23.6379 107.967 26.1776 110.321C28.9463 113.526 40.0594 119.485 44.4987 121.314C51.5286 124.209 57.278 119.742 61.5604 117.527C65.494 115.447 69.2915 113.096 72.9279 110.489C75.3574 108.633 75.1327 106.738 71.6559 104.367Z" fill="#111547"/>
<g opacity="0.1">
<path d="M30.6593 67.8653C37.1592 64.1357 41.7426 61.4895 44.4944 70.627C47.1995 79.6224 50.8544 91.4639 54.7637 93.9503C54.7637 93.9503 48.0518 93.9503 38.3294 99.4426C28.2213 105.157 26.6779 110.747 26.2158 110.347C23.6718 108.127 22.2726 88.6712 22.9043 80.8834C23.5361 73.0956 26.6567 70.1519 30.6593 67.8653Z" fill="black"/>
</g>
<path d="M76.1249 145.676L31.5964 118.757L105.97 73.8149L150.495 100.735L76.1249 145.676Z" fill="#455A64"/>
<path d="M31.5964 118.757V172.596L33.9412 174.012V137.174L73.7802 161.261V198.099L76.1249 199.516V145.676L31.5964 118.757Z" fill="#263238"/>
<path d="M33.9412 174.013L36.2859 172.596V138.59L33.9412 137.174V174.013Z" fill="black"/>
<path d="M76.125 199.516L78.4697 198.099V161.261L148.154 119.156V155.995L150.495 154.578V100.735L76.125 145.676V199.516Z" fill="#37474F"/>
<path d="M148.154 155.995L145.809 154.579V120.573L148.154 119.156V155.995Z" fill="#263238"/>
<g opacity="0.2">
<path d="M72.08 135.056C69.8031 136.428 69.8031 138.657 72.08 140.033C74.3569 141.409 78.016 141.405 80.3098 140.033C82.6037 138.661 82.5825 136.428 80.3098 135.056C78.0372 133.684 74.3611 133.679 72.08 135.056Z" fill="black"/>
</g>
<g opacity="0.2">
<path d="M39.2031 118.725L55.5441 128.613C55.6863 128.69 55.8441 128.73 56.0041 128.73C56.1641 128.73 56.3219 128.69 56.4641 128.613L68.5015 121.336C68.5569 121.317 68.605 121.279 68.639 121.229C68.6731 121.18 68.6914 121.12 68.6914 121.059C68.6914 120.997 68.6731 120.938 68.639 120.888C68.605 120.838 68.5569 120.801 68.5015 120.781L52.1521 110.889C52.0091 110.815 51.8516 110.776 51.692 110.776C51.5324 110.776 51.375 110.815 51.232 110.889L39.1946 118.17C38.9487 118.321 38.9487 118.57 39.2031 118.725Z" fill="black"/>
</g>
<g opacity="0.2">
<path d="M39.203 120.493L55.544 130.38C55.6863 130.457 55.844 130.497 56.004 130.497C56.1641 130.497 56.3218 130.457 56.4641 130.38L68.5014 123.103C68.7558 122.948 68.7558 122.699 68.5014 122.548L52.152 112.656C52.009 112.582 51.8516 112.543 51.6919 112.543C51.5323 112.543 51.3749 112.582 51.2319 112.656L39.203 119.933C39.1481 119.954 39.1007 119.992 39.0671 120.042C39.0336 120.092 39.0156 120.152 39.0156 120.213C39.0156 120.274 39.0336 120.334 39.0671 120.384C39.1007 120.434 39.1481 120.472 39.203 120.493Z" fill="black"/>
</g>
<path d="M39.203 119.915L55.544 129.803C55.6863 129.88 55.844 129.92 56.004 129.92C56.1641 129.92 56.3218 129.88 56.4641 129.803L68.5184 122.544C68.7728 122.389 68.7728 122.14 68.5184 121.989L52.152 112.079C52.009 112.004 51.8516 111.966 51.6919 111.966C51.5323 111.966 51.3749 112.004 51.2319 112.079L39.203 119.356C39.1481 119.377 39.1007 119.415 39.0671 119.465C39.0336 119.515 39.0156 119.575 39.0156 119.636C39.0156 119.697 39.0336 119.756 39.0671 119.807C39.1007 119.857 39.1481 119.895 39.203 119.915Z" fill="#EBEBEB"/>
<path d="M51.2404 112.079L39.8093 118.992L55.544 128.516C55.6869 128.59 55.8444 128.629 56.004 128.629C56.1636 128.629 56.3211 128.59 56.464 128.516L67.912 121.603L52.152 112.079C52.0101 112.006 51.8542 111.968 51.6962 111.968C51.5381 111.968 51.3822 112.006 51.2404 112.079Z" fill="#E0E0E0"/>
<path d="M39.203 118.175L55.544 128.063C55.6863 128.14 55.844 128.18 56.004 128.18C56.1641 128.18 56.3218 128.14 56.4641 128.063L68.5184 120.768C68.5733 120.747 68.6207 120.709 68.6543 120.659C68.6878 120.609 68.7058 120.549 68.7058 120.488C68.7058 120.427 68.6878 120.367 68.6543 120.317C68.6207 120.267 68.5733 120.229 68.5184 120.209L52.152 110.338C52.0097 110.262 51.852 110.222 51.6919 110.222C51.5319 110.222 51.3742 110.262 51.2319 110.338L39.203 117.616C39.1481 117.636 39.1007 117.674 39.0671 117.724C39.0336 117.775 39.0156 117.834 39.0156 117.895C39.0156 117.956 39.0336 118.016 39.0671 118.066C39.1007 118.116 39.1481 118.154 39.203 118.175Z" fill="#FAFAFA"/>
<g opacity="0.2">
<path d="M57.6639 109.934L66.5043 115.294C66.6724 115.383 66.8584 115.43 67.047 115.43C67.2357 115.43 67.4217 115.383 67.5898 115.294L96.1207 98.0352C96.1866 98.0122 96.2439 97.9682 96.2844 97.9092C96.325 97.8502 96.3469 97.7794 96.3469 97.7067C96.3469 97.634 96.325 97.5631 96.2844 97.5042C96.2439 97.4452 96.1866 97.4011 96.1207 97.3781L87.2846 92.019C87.1157 91.9293 86.929 91.8826 86.7397 91.8826C86.5504 91.8826 86.3637 91.9293 86.1949 92.019L57.6639 109.277C57.5981 109.3 57.5408 109.344 57.5002 109.403C57.4596 109.462 57.4377 109.533 57.4377 109.606C57.4377 109.679 57.4596 109.749 57.5002 109.808C57.5408 109.867 57.5981 109.911 57.6639 109.934Z" fill="black"/>
</g>
<path d="M57.9692 108.678V108.469C57.9806 108.29 58.0317 108.117 58.1186 107.963C58.2055 107.809 58.3257 107.678 58.4696 107.581L84.6643 91.7303C84.8191 91.6473 84.9906 91.604 85.1646 91.604C85.3386 91.604 85.51 91.6473 85.6649 91.7303L93.7803 96.6498C93.9232 96.7476 94.0427 96.8786 94.1295 97.0326C94.2163 97.1866 94.268 97.3595 94.2806 97.5378V97.7465C94.2686 97.925 94.2172 98.0981 94.1304 98.2522C94.0435 98.4063 93.9237 98.5372 93.7803 98.6345L67.5856 114.485C67.4307 114.568 67.2592 114.612 67.0852 114.612C66.9113 114.612 66.7398 114.568 66.5849 114.485L58.4696 109.584C58.3244 109.484 58.2035 109.35 58.1167 109.193C58.0298 109.036 57.9793 108.859 57.9692 108.678Z" fill="#E0E0E0"/>
<path d="M58.4697 108.167L66.5681 113.087C66.7235 113.168 66.8948 113.21 67.0684 113.21C67.242 113.21 67.4133 113.168 67.5687 113.087L93.7804 97.2358C93.8403 97.214 93.8922 97.1732 93.9289 97.1191C93.9656 97.065 93.9853 97.0003 93.9853 96.9339C93.9853 96.8675 93.9656 96.8028 93.9289 96.7487C93.8922 96.6946 93.8403 96.6538 93.7804 96.632L85.6481 91.7125C85.4932 91.6295 85.3217 91.5862 85.1478 91.5862C84.9738 91.5862 84.8023 91.6295 84.6474 91.7125L58.4527 107.563C58.3934 107.587 58.3426 107.629 58.3073 107.684C58.2721 107.74 58.2541 107.805 58.256 107.872C58.2579 107.938 58.2794 108.002 58.3177 108.055C58.356 108.108 58.4091 108.147 58.4697 108.167Z" fill="#FAFAFA"/>
<path d="M79.9579 137.897C81.9635 135.753 83.1422 130.394 81.1833 128.693H71.232C69.2731 130.394 70.4519 135.749 72.4574 137.893L72.5125 137.955L72.5803 138.026L72.7627 138.195L72.8093 138.235L72.9619 138.355C73.0467 138.417 73.1358 138.475 73.2206 138.528C74.1476 139.021 75.1724 139.277 76.2119 139.277C77.2514 139.277 78.2762 139.021 79.2032 138.528C79.2929 138.474 79.3793 138.415 79.4619 138.35L79.606 138.239L79.6654 138.191C79.7247 138.137 79.7841 138.084 79.8392 138.026L79.9198 137.946L79.9579 137.897Z" fill="#EBEBEB"/>
<path d="M72.08 128.01C69.8031 129.382 69.8031 131.61 72.08 132.987C74.3569 134.363 78.016 134.359 80.3098 132.987C82.6037 131.615 82.5825 129.382 80.3098 128.01C78.0372 126.638 74.3611 126.633 72.08 128.01Z" fill="#FAFAFA"/>
<path d="M73.6995 128.982C72.3173 129.821 72.3173 131.175 73.6995 132.01C74.4749 132.424 75.3329 132.64 76.2032 132.64C77.0736 132.64 77.9316 132.424 78.707 132.01C80.0892 131.175 80.0892 129.821 78.707 128.982C77.9309 128.57 77.0732 128.356 76.2032 128.356C75.3333 128.356 74.4756 128.57 73.6995 128.982Z" fill="#EBEBEB"/>
<path d="M78.707 130.42C77.9309 130.009 77.0732 129.794 76.2033 129.794C75.3334 129.794 74.4756 130.009 73.6996 130.42C73.3583 130.608 73.0668 130.881 72.8516 131.215C73.0668 131.55 73.3583 131.823 73.6996 132.01C74.4749 132.424 75.3329 132.64 76.2033 132.64C77.0736 132.64 77.9316 132.424 78.707 132.01C79.0496 131.825 79.3414 131.551 79.555 131.215C79.3414 130.879 79.0496 130.606 78.707 130.42Z" fill="#E0E0E0"/>
<path d="M74.0048 131.215C73.2967 130.463 72.6878 129.615 72.1943 128.693C71.3463 127.144 71.2022 125.07 71.6347 124.813C72.0671 124.555 73.8267 126.629 73.8267 126.629C73.6643 125.752 73.6017 124.857 73.6402 123.965C73.7165 122.584 74.0345 121.332 74.4119 121.079C74.7892 120.826 75.6372 122.566 75.9976 123.827C76.358 125.088 76.5743 126.127 76.5743 126.127C76.7213 125.144 76.9381 124.173 77.223 123.223C77.647 121.913 78.071 121.616 78.372 121.749C78.673 121.882 78.885 122.486 78.9741 124.231C79.0069 125.064 78.9814 125.898 78.8978 126.726C78.8978 126.726 79.5211 126.012 80.2079 125.319C80.9669 124.56 81.2891 124.431 81.5054 124.6C81.7216 124.768 81.781 125.932 80.6107 128.152C80.0279 129.282 79.2813 130.311 78.3974 131.202C78.3974 131.202 76.7735 132.312 74.0048 131.215Z" fill="#111547"/>
<path d="M117.448 105.849L119.568 79.1029C119.59 78.669 119.504 78.2366 119.319 77.8476C119.134 77.4587 118.856 77.1264 118.512 76.8829C118.134 76.6908 117.719 76.5948 117.299 76.6025C116.879 76.6102 116.467 76.7215 116.095 76.9273L88.1114 93.8393C87.7426 94.0917 87.4299 94.4241 87.1944 94.814C86.9588 95.2039 86.806 95.6422 86.7461 96.0992L84.6261 122.841C84.6053 123.275 84.6911 123.706 84.8752 124.095C85.0593 124.484 85.3356 124.816 85.6776 125.061C86.0565 125.253 86.4731 125.348 86.8937 125.34C87.3143 125.331 87.7271 125.219 88.0987 125.013L116.083 108.105C116.451 107.853 116.763 107.521 116.998 107.132C117.234 106.743 117.387 106.306 117.448 105.849Z" fill="#111547"/>
<path opacity="0.5" d="M117.448 105.849L119.568 79.1029C119.59 78.669 119.504 78.2366 119.319 77.8476C119.134 77.4587 118.856 77.1264 118.512 76.8829C118.134 76.6908 117.719 76.5948 117.299 76.6025C116.879 76.6102 116.467 76.7215 116.095 76.9273L88.1114 93.8393C87.7426 94.0917 87.4299 94.4241 87.1944 94.814C86.9588 95.2039 86.806 95.6422 86.7461 96.0992L84.6261 122.841C84.6053 123.275 84.6911 123.706 84.8752 124.095C85.0593 124.484 85.3356 124.816 85.6776 125.061C86.0565 125.253 86.4731 125.348 86.8937 125.34C87.3143 125.331 87.7271 125.219 88.0987 125.013L116.083 108.105C116.451 107.853 116.763 107.521 116.998 107.132C117.234 106.743 117.387 106.306 117.448 105.849Z" fill="white"/>
<path d="M117.448 105.849L119.568 79.1029C119.59 78.669 119.504 78.2366 119.319 77.8476C119.134 77.4587 118.856 77.1264 118.512 76.8829C118.134 76.6908 117.719 76.5948 117.299 76.6025C116.879 76.6102 116.467 76.7215 116.095 76.9273L88.1115 93.8393C87.7418 94.0805 87.431 94.4089 87.2041 94.7983L91.5501 97.4268V122.93L116.083 108.101C116.45 107.849 116.762 107.518 116.997 107.129C117.233 106.741 117.386 106.305 117.448 105.849Z" fill="#111547"/>
<path opacity="0.8" d="M117.448 105.849L119.568 79.1029C119.59 78.669 119.504 78.2366 119.319 77.8476C119.134 77.4587 118.856 77.1264 118.512 76.8829C118.134 76.6908 117.719 76.5948 117.299 76.6025C116.879 76.6102 116.467 76.7215 116.095 76.9273L88.1115 93.8393C87.7418 94.0805 87.431 94.4089 87.2041 94.7983L91.5501 97.4268V122.93L116.083 108.101C116.45 107.849 116.762 107.518 116.997 107.129C117.233 106.741 117.386 106.305 117.448 105.849Z" fill="white"/>
<path d="M86.9709 124.267L89.0909 97.5246C89.1505 97.0674 89.3033 96.629 89.5388 96.2391C89.7744 95.8492 90.0872 95.5168 90.4562 95.2646L118.44 78.3526C119.131 77.9353 119.636 78.2727 119.572 79.103L117.452 105.85C117.392 106.306 117.239 106.745 117.003 107.134C116.768 107.524 116.455 107.857 116.087 108.11L88.103 125.017C87.4119 125.434 86.92 125.097 86.9709 124.267Z" fill="#111547"/>
<path opacity="0.65" d="M86.9709 124.267L89.0909 97.5246C89.1505 97.0674 89.3033 96.629 89.5388 96.2391C89.7744 95.8492 90.0872 95.5168 90.4562 95.2646L118.44 78.3526C119.131 77.9353 119.636 78.2727 119.572 79.103L117.452 105.85C117.392 106.306 117.239 106.745 117.003 107.134C116.768 107.524 116.455 107.857 116.087 108.11L88.103 125.017C87.4119 125.434 86.92 125.097 86.9709 124.267Z" fill="white"/>
<path d="M101.404 102.808C101.514 101.441 102.43 99.8289 103.452 99.2073C104.474 98.5857 105.216 99.2073 105.105 100.562C104.995 101.916 104.084 103.545 103.062 104.167C102.04 104.788 101.298 104.18 101.404 102.808Z" fill="#111547"/>
<path d="M102.061 110.893L108.938 106.711L107.768 106.005L100.895 110.187L102.061 110.893Z" fill="#111547"/>
<g opacity="0.85">
<path d="M102.061 110.893L108.938 106.711L107.768 106.005L100.895 110.187L102.061 110.893Z" fill="white"/>
</g>
<path d="M112.127 118.992L103.757 124.054C103.592 124.147 103.406 124.191 103.219 124.182C103.061 124.178 102.906 124.137 102.765 124.062L99.0803 121.842H99.0591C98.9202 121.742 98.8051 121.61 98.7228 121.456C98.6404 121.302 98.593 121.131 98.5842 120.954V120.75C98.5842 120.417 98.8005 120.28 99.0803 120.448L101.306 121.78L101.802 122.082L101.692 121.492L100.912 110.187L102.078 110.898L108.955 106.715L112.521 118.104C112.543 118.276 112.517 118.451 112.447 118.608C112.377 118.765 112.266 118.898 112.127 118.992Z" fill="#111547"/>
<g opacity="0.5">
<path d="M112.127 118.992L103.757 124.054C103.592 124.147 103.406 124.191 103.219 124.182C103.061 124.178 102.906 124.137 102.765 124.062L99.0803 121.842H99.0591C98.9202 121.742 98.8051 121.61 98.7228 121.456C98.6404 121.302 98.593 121.131 98.5842 120.954V120.75C98.5842 120.417 98.8005 120.28 99.0803 120.448L101.306 121.78L101.802 122.082L101.692 121.492L100.912 110.187L102.078 110.898L108.955 106.715L112.521 118.104C112.543 118.276 112.517 118.451 112.447 118.608C112.377 118.765 112.266 118.898 112.127 118.992Z" fill="white"/>
</g>
<path d="M98.7241 120.364L101.578 118.637L102.159 122.664L98.7241 120.364Z" fill="#111547"/>
<g opacity="0.25">
<path d="M98.7241 120.364L101.578 118.637L102.159 122.664L98.7241 120.364Z" fill="black"/>
</g>
<path d="M102.061 110.898L100.895 110.188L101.679 121.461C101.743 121.785 101.565 121.905 101.294 121.749L99.0676 120.417C98.7878 120.249 98.5715 120.386 98.5715 120.719V120.923C98.5803 121.1 98.6277 121.271 98.7101 121.425C98.7924 121.579 98.9075 121.711 99.0464 121.811H99.0676L102.752 124.031C102.893 124.106 103.048 124.147 103.206 124.151L102.061 110.898Z" fill="#111547"/>
<g opacity="0.25">
<path d="M102.061 110.898L100.895 110.188L101.679 121.461C101.743 121.785 101.565 121.905 101.294 121.749L99.0676 120.417C98.7878 120.249 98.5715 120.386 98.5715 120.719V120.923C98.5803 121.1 98.6277 121.271 98.7101 121.425C98.7924 121.579 98.9075 121.711 99.0464 121.811H99.0676L102.752 124.031C102.893 124.106 103.048 124.147 103.206 124.151L102.061 110.898Z" fill="white"/>
</g>
<path opacity="0.2" d="M70.7444 118.29L72.0333 119.067L82.2009 112.834L83.3245 111.448L80.984 112.096L70.7444 118.29Z" fill="black"/>
<path d="M81.0771 111.151L83.2438 110.707C83.2575 110.704 83.2715 110.706 83.2841 110.713C83.2966 110.719 83.3071 110.729 83.314 110.741C83.3209 110.754 83.324 110.768 83.3228 110.783C83.3216 110.797 83.3163 110.811 83.3074 110.822L81.8319 112.563L81.0771 111.151Z" fill="#FFA8A7"/>
<path d="M83.3074 110.822C83.3163 110.811 83.3217 110.797 83.3229 110.783C83.324 110.768 83.3209 110.754 83.314 110.741C83.3071 110.729 83.2966 110.719 83.2841 110.713C83.2715 110.706 83.2575 110.704 83.2438 110.707L82.8198 110.791C82.8783 110.829 82.9255 110.883 82.9563 110.947C82.987 111.012 82.9999 111.084 82.9937 111.155V111.195L83.3074 110.822Z" fill="#263238"/>
<path d="M73.7761 117.411L73.9541 117.305L74.1704 117.18L81.8321 112.563C81.9038 112.314 81.8826 112.046 81.7727 111.812C81.7157 111.651 81.6223 111.507 81.5005 111.392C81.3786 111.277 81.232 111.194 81.0731 111.151L73.3945 115.764L72.9705 116.008C73.263 115.884 74.0305 117.265 73.7761 117.411Z" fill="#111547"/>
<path d="M74.4374 117.012L74.8317 116.772C74.9462 116.705 74.8826 116.408 74.7427 116.097C74.5646 115.684 74.2084 115.284 74.0515 115.369L73.7632 115.546L73.6572 115.609C73.8141 115.524 74.1703 115.924 74.3483 116.337C74.4798 116.634 74.5476 116.923 74.4459 117.003L74.4374 117.012Z" fill="#EBEBEB"/>
<path d="M74.5348 116.95C74.8062 116.799 74.0303 115.396 73.7547 115.546L73.3604 115.786C73.6317 115.635 74.4076 117.038 74.1363 117.189L74.5348 116.95Z" fill="#111547"/>
<path d="M73.776 117.411L74.1703 117.18C74.4374 117.034 73.6954 115.675 73.4156 115.764L73.0212 116.004C73.2629 115.884 74.0304 117.265 73.776 117.411Z" fill="#EBEBEB"/>
<path opacity="0.15" d="M83.3159 110.742L83.2438 110.707L81.6708 111.595L73.5427 116.479C73.5427 116.452 73.5173 116.452 73.5088 116.479C73.7377 116.856 73.9116 117.331 73.759 117.411L73.937 117.305L74.1533 117.18L81.8319 112.563L83.3032 110.822C83.3123 110.812 83.3184 110.798 83.3207 110.784C83.3229 110.77 83.3213 110.756 83.3159 110.742Z" fill="black"/>
<path d="M72.1012 118.41L73.7591 117.411C73.8778 117.349 73.8142 117.051 73.6785 116.745C73.5004 116.328 73.1443 115.928 72.9874 116.008L71.3211 117.007C70.9904 117.207 71.2956 117.962 71.6645 118.295C71.7173 118.358 71.7875 118.403 71.8656 118.424C71.9436 118.445 72.0259 118.44 72.1012 118.41Z" fill="#F28F8F"/>
<path opacity="0.1" d="M72.1988 117.869C72.1571 117.68 72.074 117.505 71.9563 117.356C71.8385 117.207 71.6893 117.089 71.5204 117.012C71.4799 116.995 71.436 116.99 71.393 116.996C71.3499 117.002 71.3091 117.02 71.2745 117.047C71.0243 117.287 71.3126 117.98 71.6645 118.295C71.7164 118.356 71.7843 118.399 71.8598 118.42C71.9353 118.44 72.0149 118.437 72.0885 118.41C72.2157 118.335 72.2624 118.135 72.1988 117.869Z" fill="black"/>
<path d="M131.041 35.4314C130.96 35.3841 130.868 35.3596 130.774 35.3604H125.928L123.927 36.5681V43.8186L125.928 42.6242L127.654 40.5374V45.6434L129.655 44.4357L134.896 38.5305C134.946 38.4684 134.983 38.3955 135.003 38.3169C135.024 38.2384 135.028 38.156 135.015 38.0757C135.002 37.9954 134.973 37.9189 134.929 37.8518C134.884 37.7846 134.827 37.7284 134.76 37.6869L131.041 35.4314Z" fill="#455A64"/>
<path d="M127.662 45.6433L129.663 44.4356L134.904 38.5304C134.971 38.4499 135.014 38.3509 135.029 38.2452C135.043 38.1396 135.028 38.0318 134.986 37.9348C134.943 37.8378 134.875 37.7557 134.789 37.6984C134.703 37.641 134.603 37.6108 134.501 37.6113H129.663L127.662 38.8235V45.6433Z" fill="#37474F"/>
<path d="M129.676 31.6262C129.641 30.9291 129.448 30.2506 129.115 29.6457C128.783 29.0409 128.318 28.5269 127.76 28.1453C127.165 27.8286 126.507 27.6636 125.839 27.6636C125.171 27.6636 124.513 27.8286 123.918 28.1453L109.328 36.8921C108.769 37.2736 108.303 37.7881 107.969 38.3938C107.636 38.9995 107.443 39.6792 107.408 40.3775V56.8721C107.444 57.5696 107.637 58.2484 107.97 58.8532C108.304 59.4581 108.769 59.9719 109.328 60.353C109.924 60.6697 110.582 60.8347 111.249 60.8347C111.917 60.8347 112.575 60.6697 113.17 60.353L127.942 51.473C129.668 50.4429 129.685 49.4084 129.685 48.1253L129.676 31.6262Z" fill="#37474F"/>
<path d="M107.408 56.8721C107.444 57.5696 107.637 58.2484 107.97 58.8532C108.304 59.4581 108.769 59.9719 109.328 60.353C109.87 60.6383 110.463 60.8008 111.069 60.8299C111.674 60.859 112.279 60.754 112.843 60.5217C111.94 60.8769 111.249 60.3353 111.249 59.1897V42.6951C111.273 41.9955 111.467 41.3139 111.813 40.7149L107.972 38.3972C107.627 38.9965 107.434 39.6782 107.412 40.3775L107.408 56.8721Z" fill="#263238"/>
<path d="M129.617 31.0802C129.392 30.2232 128.646 29.9524 127.76 30.4896L113.166 39.2142C112.597 39.5818 112.131 40.0993 111.813 40.715L107.997 38.4017C108.316 37.7856 108.782 37.2668 109.35 36.8966L123.935 28.1498C124.531 27.8344 125.19 27.6702 125.858 27.6702C126.526 27.6702 127.185 27.8344 127.781 28.1498C128.261 28.4822 128.671 28.9135 128.987 29.4172C129.302 29.921 129.517 30.4868 129.617 31.0802Z" fill="#455A64"/>
<path d="M122.375 51.5308L118.932 53.6132V39.1832L122.375 37.1008V51.5308Z" fill="#111547"/>
<path d="M125.822 39.8269V44.6354L115.489 50.8825V46.074L125.822 39.8269Z" fill="#111547"/>
<path d="M160.844 51.8103C164.236 51.908 165.199 53.3288 167.243 56.3879C169.286 59.4471 176.24 71.0399 176.24 71.0399L186.089 75.0004L184.792 81.0166C184.792 81.0166 171.627 78.6812 170.766 78.1528C169.905 77.6245 163.494 66.5644 163.494 66.5644L160.844 51.8103Z" fill="#E6E6E6"/>
<path d="M158.25 51.908C161.455 51.0689 162.871 52.9426 163.94 55.016C168.794 64.34 170.766 120.284 170.766 120.284C170.766 120.284 159.937 124.808 151.902 119.498L158.25 51.908Z" fill="#F0F0F0"/>
<path d="M168.574 148.065L166.547 156.141C166.547 156.141 164.211 157.584 162.197 156.164C160.598 155.036 160.696 153.699 160.696 153.699L160.789 152.483L161.018 143.092L168.574 148.065Z" fill="#B16668"/>
<path d="M158.822 158.064C158.266 159.356 157.948 163.13 157.948 163.13C157.948 163.13 158.288 164.52 160.132 165.75L161.926 160.759L158.822 158.064Z" fill="#263238"/>
<path d="M160.132 165.767L164.792 165.097L166.564 161.212L161.167 162.89L160.132 165.767Z" fill="black"/>
<path d="M166.899 154.743L167.149 153.757C167.857 153.797 167.794 155.262 167.845 155.689C168.002 156.91 168.12 158.131 168.298 159.347C168.483 160.694 168.782 162.021 169.193 163.312C169.617 164.542 169.863 165.852 170.58 166.939C171.296 168.027 172.555 168.671 173.573 169.404C173.842 169.565 174.065 169.8 174.217 170.083C174.451 170.625 174.124 171.251 173.721 171.664C173.007 172.362 172.106 172.817 171.139 172.969C170.176 173.118 169.198 173.118 168.235 172.969C166.525 172.777 164.887 172.142 163.469 171.122C162.104 170.101 161.807 168.081 161.586 166.447C161.408 165.115 161.519 163.565 160.993 162.317C160.467 161.07 158.966 159.431 158.822 158.082C158.76 156.938 158.992 155.797 159.492 154.778C160.039 153.682 160.433 152.283 160.789 152.483L160.726 153.282C160.726 153.224 161.078 154.818 163.27 155.387C164.3 155.657 166.246 155.649 166.899 154.743Z" fill="#263238"/>
<path d="M163.579 163.49C163.639 164.982 163.579 165.599 163.579 166.274C163.639 167.508 163.952 168.365 164.219 169.564C164.334 170.056 164.496 170.535 164.703 170.993C164.923 171.526 165.335 172.245 165.093 172.769C164.973 173.01 164.809 173.223 164.609 173.395C163.728 174.186 162.589 174.592 161.429 174.528C160.819 174.521 160.221 174.341 159.7 174.008C158.678 173.307 158.275 172.028 157.728 170.949C157.13 169.781 157.478 169.173 157.38 167.89C157.261 166.193 157.05 164.505 156.749 162.833C158.958 160.186 160.815 162.753 163.579 163.49Z" fill="#B16668"/>
<path d="M166.963 89.688C170.274 101.774 175.867 122.313 174.298 128.707C173.111 133.497 167.938 150.991 167.938 150.991C165.941 151.284 161.858 151.75 160.268 148.087C159.865 142.142 158.466 101.774 158.466 101.774L166.963 89.688Z" fill="#111547"/>
<path opacity="0.4" d="M166.963 89.688C170.274 101.774 175.867 122.313 174.298 128.707C173.111 133.497 167.938 150.991 167.938 150.991C165.941 151.284 161.858 151.75 160.268 148.087C159.865 142.142 158.466 101.774 158.466 101.774L166.963 89.688Z" fill="white"/>
<path opacity="0.25" d="M158.483 101.751C160.585 99.6715 162.539 97.4337 164.33 95.0559C164.33 95.0559 163.906 97.9197 160.136 101.867C160.136 101.867 166.454 127.348 166.416 131.415C166.378 135.482 164.296 150.063 164.296 150.063L158.483 101.751Z" fill="black"/>
<path d="M166.963 89.6881C164.262 95.5534 163.202 97.8977 158.483 101.774C158.483 101.774 164.253 126.886 164.508 131.762C164.932 139.865 163.935 158.002 163.579 163.512C162.685 164.737 158.326 164.946 156.952 163.903C156.325 161.354 154.217 152.385 153.229 144.34C152.5 138.395 153.433 133.076 153.552 131.517C150.495 123.352 143.63 111.435 141.12 102.897C140.708 101.419 140.448 99.8996 140.344 98.3639C139.784 92.9515 141.9 88.8179 143.142 85.9319L166.963 89.6881Z" fill="#111547"/>
<g opacity="0.5">
<path d="M166.963 89.6881C164.262 95.5534 163.202 97.8977 158.483 101.774C158.483 101.774 164.253 126.886 164.508 131.762C164.932 139.865 163.935 158.002 163.579 163.512C162.685 164.737 158.326 164.946 156.952 163.903C156.325 161.354 154.217 152.385 153.229 144.34C152.5 138.395 153.433 133.076 153.552 131.517C150.495 123.352 143.63 111.435 141.12 102.897C140.708 101.419 140.448 99.8996 140.344 98.3639C139.784 92.9515 141.9 88.8179 143.142 85.9319L166.963 89.6881Z" fill="white"/>
</g>
<path d="M156.282 171.983C155.947 173.351 156.253 177.12 156.253 177.12C156.253 177.12 156.808 178.426 158.822 179.309L159.776 174.079L156.282 171.983Z" fill="#263238"/>
<path d="M158.822 179.309L163.299 177.813L164.406 173.679L159.373 176.29L158.822 179.309Z" fill="black"/>
<path d="M163.562 167.255L163.596 166.274C164.198 166.589 165.491 171.708 167.264 175.234C168.883 178.448 172.131 180.26 173.179 181.663C174.578 183.541 171.805 185.916 167.391 184.886C165.203 184.371 161.879 182.87 161.006 181.312C160.132 179.753 159.835 176.903 159.11 175.757C158.385 174.612 156.643 173.284 156.282 171.983C156.001 170.806 156.014 169.572 156.32 168.4C156.677 167.224 156.66 166.016 157.223 165.918L157.308 166.842C157.601 167.477 158.746 168.205 160.976 168.356C162.04 168.423 163.07 168.276 163.562 167.255Z" fill="#37474F"/>
<path d="M155.752 41.7982L153.526 49.6792C147.336 49.6792 143.511 43.3655 143.511 36.8831C143.511 30.3741 147.471 24.9351 153.687 24.9351H155.705C161.921 24.9351 166.963 29.2552 166.963 35.7687C166.963 40.0089 161.943 41.7982 155.752 41.7982Z" fill="#263238"/>
<path d="M168.125 29.748C168.6 28.9354 168.829 27.9912 168.782 27.0396C168.752 26.5635 168.62 26.1007 168.394 25.6861C168.169 25.2715 167.856 24.916 167.48 24.6465C166.323 23.8739 164.72 24.238 163.664 25.1304C163.578 24.2826 163.181 23.503 162.555 22.9569C161.93 22.4107 161.126 22.1409 160.315 22.2045C159.284 22.2888 158.368 22.8882 157.478 23.4299C155.962 24.2346 154.326 24.7617 152.64 24.9883L154.535 25.752C154.278 26.1674 154.114 26.6389 154.057 27.1305C153.999 27.6222 154.05 28.1211 154.205 28.5892C154.286 28.7811 154.385 28.9641 154.502 29.1353C155.76 31.1061 157.497 32.6895 159.535 33.7221C161.573 34.7547 163.837 35.1991 166.094 35.0094C166.726 34.9951 167.345 34.8117 167.891 34.4766C168.21 34.2393 168.48 33.9373 168.684 33.5886C169.08 32.9826 169.275 32.2573 169.24 31.524C169.215 31.1527 169.099 30.7944 168.904 30.4834C168.709 30.1723 168.44 29.9191 168.125 29.748Z" fill="#263238"/>
<path d="M150.919 52.8359L146.861 53.2799C144.168 53.9681 142.952 55.2113 142.676 57.7199C142.549 58.8832 141.875 61.9823 142.816 65.8673C143.664 69.3838 145.945 77.993 145.945 77.993C145.945 77.993 142.998 85.7319 141.616 89.6879C151.19 96.2281 163.007 93.644 166.975 89.6879C166.64 85.9495 165.377 82.4641 165.093 79.1296C165.093 79.1296 165.296 73.9171 165.691 71.6571C168.722 68.1983 168.332 64.8861 166.963 62.2177C164.453 57.2848 160.666 52.9558 159.445 52.9603L150.919 52.8359Z" fill="#455A64"/>
<path d="M158.195 50.0344C159.407 50.3452 160.353 50.8603 160.845 51.8104C161.336 52.7606 165.174 59.0876 165.174 59.0876C165.174 59.0876 162.078 54.8207 159.746 53.5287C159.27 53.2377 158.742 53.0533 158.195 52.987V50.0344Z" fill="#E0E0E0"/>
<path d="M150.919 52.8359C150.919 52.8359 155.159 62.0933 155.913 68.3404C156.668 74.5875 155.065 95.8995 155.065 102.662C155.065 110.813 155.091 124.267 155.091 124.267C155.091 124.267 150.253 124.267 146.929 123.272C144.499 122.548 141.62 121.247 139.878 119.067C139.878 119.067 139.403 102.382 140.404 94.4343C141.349 86.8863 145.186 77.5889 145.186 77.5889L140.268 57.9552C140.268 57.9552 140.497 54.5808 143.528 53.6351C146.399 52.7293 150.919 52.8359 150.919 52.8359Z" fill="#FAFAFA"/>
<path d="M146.929 56.8765L141.909 64.571L145.169 77.5802C145.169 77.5802 142.142 84.2713 141.027 90.7492C144.05 81.7937 146.78 79.1075 146.78 79.1075L145.008 71.5329C145.008 71.5329 145.631 69.1486 146.5 65.0816C147.37 61.0145 147.225 58.6569 146.929 56.8765Z" fill="#EBEBEB"/>
<path d="M149.672 64.1313C149.672 63.745 149.638 62.9103 149.574 61.8536C149.261 56.6988 149.116 52.0368 150.779 51.6416L150.927 52.352C149.71 52.6273 150.113 59.2828 150.266 61.787C150.333 62.8659 150.384 63.714 150.367 64.1402L149.672 64.1313Z" fill="#111547"/>
<path d="M150.919 50.0344C150.609 50.0362 150.306 50.1265 150.043 50.2955C149.779 50.4645 149.564 50.7059 149.422 50.9935C149.023 51.7039 148.184 52.8982 148.184 52.8982C148.184 52.8982 148.154 57.6313 148.608 58.8611C148.998 59.9267 153.789 63.8739 153.789 63.8739C153.789 63.8739 153.323 68.0519 153.284 69.5127C153.246 70.9735 155.706 76.2704 156.007 79.1075C156.007 79.1075 156.515 72.2167 156.117 69.0154C155.417 63.4432 152.097 55.1093 150.919 52.8272V50.0344Z" fill="#EBEBEB"/>
<path d="M148.667 81.3719H148.608V80.8657C149.183 80.8153 149.735 80.6003 150.202 80.2441C149.704 79.8966 149.258 79.4731 148.879 78.9876C148.095 77.9264 146.382 70.3562 146.912 68.5935C147.336 67.115 148.739 63.8516 149.977 63.7983H150.007C151.241 63.7983 152.86 66.8797 153.42 68.3005C154.09 70.0143 152.996 77.7089 152.301 78.8322C151.964 79.3515 151.554 79.8141 151.084 80.2041C151.575 80.5221 152.143 80.6883 152.721 80.6837L152.78 81.1854C152.027 81.1988 151.289 80.9744 150.66 80.5416C150.084 81.0094 149.393 81.2972 148.667 81.3719ZM150.028 64.3001C149.303 64.3311 148.001 66.7509 147.408 68.7401C146.92 70.3607 148.57 77.6867 149.295 78.6723C149.68 79.1602 150.136 79.5813 150.647 79.92C151.139 79.5371 151.568 79.0739 151.919 78.548C152.564 77.5046 153.615 70.0587 152.992 68.487C152.237 66.6 150.757 64.3001 150.028 64.3001Z" fill="#455A64"/>
<path d="M153.488 80.8967C153.494 81.0441 153.458 81.1899 153.384 81.3158C153.311 81.4417 153.204 81.5419 153.076 81.6039C152.948 81.6659 152.806 81.6869 152.666 81.6641C152.527 81.6414 152.398 81.5759 152.294 81.4761C152.19 81.3762 152.117 81.2465 152.084 81.1032C152.051 80.9598 152.059 80.8094 152.107 80.6709C152.156 80.5324 152.242 80.4121 152.356 80.325C152.47 80.238 152.605 80.1882 152.746 80.1819C152.935 80.1747 153.118 80.2457 153.257 80.3795C153.396 80.5134 153.479 80.6993 153.488 80.8967Z" fill="#263238"/>
<path d="M149.329 81.0832C149.334 81.2305 149.298 81.3764 149.225 81.5022C149.151 81.6281 149.044 81.7284 148.916 81.7904C148.789 81.8524 148.646 81.8733 148.507 81.8506C148.368 81.8278 148.238 81.7624 148.135 81.6625C148.031 81.5627 147.958 81.4329 147.925 81.2896C147.891 81.1463 147.9 80.9959 147.948 80.8574C147.996 80.7189 148.083 80.5985 148.196 80.5115C148.31 80.4244 148.446 80.3746 148.587 80.3683C148.68 80.3642 148.774 80.3794 148.862 80.4131C148.949 80.4467 149.03 80.4983 149.099 80.5647C149.168 80.631 149.224 80.711 149.263 80.8C149.303 80.889 149.325 80.9852 149.329 81.0832Z" fill="#263238"/>
<path d="M153.556 71.635L153.132 71.6039C153.111 71.6028 153.091 71.5973 153.072 71.5877C153.053 71.578 153.037 71.5644 153.023 71.5478C153.01 71.5312 153 71.5118 152.993 71.4909C152.987 71.47 152.985 71.448 152.988 71.4263C153.068 70.0055 153.026 68.9577 152.861 68.5403C152.14 66.7022 150.656 64.4022 150.007 64.4289C149.358 64.4555 148.061 66.8842 147.493 68.7801C147.366 69.2241 147.404 70.2586 147.603 71.6661C147.609 71.7096 147.599 71.7538 147.574 71.7895C147.55 71.8252 147.513 71.8494 147.472 71.857L147.048 71.9236C147.026 71.9267 147.005 71.9254 146.984 71.9197C146.963 71.914 146.944 71.904 146.927 71.8904C146.91 71.8767 146.896 71.8597 146.885 71.8402C146.875 71.8208 146.868 71.7993 146.865 71.7771C146.64 70.1964 146.615 69.1131 146.78 68.5492C147.086 67.5369 148.515 63.7318 149.956 63.6652C151.398 63.5986 153.132 67.266 153.518 68.2517C153.73 68.7934 153.793 69.8768 153.696 71.4752C153.694 71.5148 153.679 71.5525 153.654 71.5817C153.628 71.611 153.593 71.6298 153.556 71.635Z" fill="#111547"/>
<path d="M136.842 110.334C137.58 111.058 137.982 112.03 138.741 113.469C139.5 114.907 143.244 115.045 143.541 111C143.766 107.954 142.748 106.924 140.709 104.553C138.567 102.058 137.741 101.649 137.838 99.336C137.893 98.195 139.534 81.6782 139.534 81.6782L144.932 66.1071C144.932 66.1071 146.882 58.8299 145.903 53.7594C145.903 53.7594 142.405 53.462 139.933 56.046C137.045 59.0652 133.776 73.9925 133.056 77.0073C132.017 80.8273 131.563 84.7956 131.711 88.7644C131.881 93.6084 131.898 103.732 132.513 105.965C133.128 108.198 134.853 108.385 136.842 110.334Z" fill="#B16668"/>
<path d="M146.144 53.0891C146.144 53.0891 142.426 52.8449 140.251 54.7097C138.076 56.5745 136.723 61.7871 135.125 66.9952C133.526 72.2033 132.102 77.2783 131.576 80.9279C131.152 83.9827 132 100.109 132 100.109C132 100.109 134.476 101.05 137.838 99.3362L139.92 81.6961L146.153 63.9893C147.302 60.455 147.299 56.6215 146.144 53.0891Z" fill="#F0F0F0"/>
<path d="M160.632 30.8848C163.465 31.1911 165.831 34.3435 165.674 41.4964C165.538 47.5614 163.66 49.0444 162.706 49.4884C161.752 49.9324 159.945 49.9901 158.182 49.6793V52.9871C158.182 52.9871 160.217 57.6846 159.352 59.3629C154.523 57.2761 150.919 52.8361 150.919 52.8361V45.3414C150.919 45.3414 149.727 46.8199 147.777 45.4657C145.826 44.1115 145.75 40.7504 146.886 39.5428C148.023 38.3351 150.465 38.7214 150.919 40.3864C150.919 40.3864 152.615 40.342 155.739 38.011C158.117 36.3089 159.849 33.7869 160.632 30.8848Z" fill="#B16668"/>
<path d="M157.809 39.1696C157.818 39.2784 157.806 39.388 157.774 39.4919C157.743 39.5959 157.691 39.6921 157.623 39.7749C157.555 39.8577 157.472 39.9254 157.379 39.9739C157.285 40.0225 157.183 40.0509 157.079 40.0576C156.921 40.0723 156.761 40.0371 156.622 39.9565C156.482 39.8759 156.369 39.7535 156.296 39.605C156.223 39.4565 156.194 39.2887 156.213 39.123C156.232 38.9572 156.297 38.8011 156.401 38.6746C156.505 38.548 156.643 38.4568 156.797 38.4126C156.95 38.3683 157.113 38.3731 157.264 38.4262C157.415 38.4794 157.548 38.5785 157.645 38.7109C157.742 38.8433 157.799 39.0031 157.809 39.1696Z" fill="#263238"/>
<path d="M158.623 44.844L160.921 45.6121C160.88 45.773 160.808 45.9235 160.709 46.0546C160.611 46.1857 160.489 46.2947 160.35 46.3751C160.21 46.4555 160.057 46.5057 159.899 46.5226C159.74 46.5395 159.58 46.5228 159.428 46.4735C159.12 46.3618 158.865 46.1304 158.715 45.8272C158.565 45.5239 158.532 45.172 158.623 44.844Z" fill="#9A4A4D"/>
<path d="M164.639 37.296L163.079 36.1638C163.144 36.0537 163.231 35.9589 163.333 35.8849C163.434 35.811 163.55 35.7596 163.671 35.7339C163.792 35.7081 163.918 35.7085 164.039 35.7351C164.16 35.7617 164.275 35.8139 164.376 35.8885C164.585 36.0421 164.729 36.2744 164.778 36.5368C164.827 36.7992 164.778 37.0713 164.639 37.296Z" fill="#263238"/>
<path d="M164.088 39.0142C164.089 39.1727 164.046 39.3281 163.964 39.4611C163.882 39.5942 163.764 39.699 163.626 39.7625C163.487 39.826 163.334 39.8454 163.185 39.8183C163.035 39.7913 162.897 39.7189 162.787 39.6102C162.677 39.5015 162.6 39.3614 162.565 39.2071C162.531 39.0529 162.54 38.8914 162.592 38.7427C162.645 38.594 162.738 38.4647 162.859 38.3709C162.981 38.2771 163.127 38.2229 163.278 38.215C163.382 38.2115 163.485 38.2294 163.581 38.2677C163.678 38.306 163.767 38.3639 163.842 38.4382C163.917 38.5125 163.978 38.6016 164.02 38.7005C164.062 38.7993 164.085 38.906 164.088 39.0142Z" fill="#263238"/>
<path d="M160.175 38.5525L160.298 43.4098L162.74 42.6195L160.175 38.5525Z" fill="#9A4A4D"/>
<path d="M158.195 49.6791C156.329 49.426 152.5 47.943 151.902 46.3535C152.142 47.1568 152.611 47.8636 153.246 48.3782C154.391 49.4082 158.195 50.5626 158.195 50.5626V49.6791Z" fill="#9A4A4D"/>
<path d="M189.337 69.0332L170.902 78.2196L165.831 101.192L166.242 101.649L183.766 92.4187L189.749 69.4905L189.337 69.0332Z" fill="#111547"/>
<path opacity="0.35" d="M171.317 78.6812L166.242 101.649L165.831 101.192L170.902 78.2195L171.317 78.6812Z" fill="black"/>
<path opacity="0.25" d="M189.749 69.4905L171.317 78.6813L166.242 101.649L183.766 92.4186L189.749 69.4905Z" fill="black"/>
<g opacity="0.2">
<path d="M181.048 87.7477C181.218 88.1917 182.63 89.1951 184.678 89.0175L185.021 87.6855L181.048 87.7477Z" fill="black"/>
</g>
<g opacity="0.1">
<path d="M184.194 74.197L184.347 73.4289C184.431 72.9849 183.35 73.2246 181.93 73.9261L179.216 75.2581C177.796 75.9596 176.579 76.8743 176.494 77.3005L176.342 78.0686L184.194 74.197Z" fill="black"/>
</g>
<path d="M185.314 70.5961C185.369 70.3297 184.928 70.3608 184.334 70.6672L183.261 71.2177C183.261 71.2177 183.579 69.5527 181.192 70.6405C178.805 71.7283 178.288 73.6508 178.288 73.6508L177.139 74.2502C176.503 74.5788 175.93 75.0672 175.867 75.3336L175.731 75.822L185.225 71.0934C185.225 71.0934 185.263 70.8625 185.314 70.5961Z" fill="#37474F"/>
<path d="M184.304 72.1899C183.435 72.6028 183.071 72.8071 182.943 73.4642C182.795 74.2101 182.736 74.7518 182.736 74.7518L178.53 76.8475C178.53 76.8475 178.733 75.8973 178.797 75.5155C178.86 75.1336 178.72 74.9649 178.05 75.3023L177.788 74.5298L184.572 71.2175L184.304 72.1899Z" fill="#37474F"/>
<path d="M184.44 74.2103C184.44 74.2103 184.508 73.864 184.593 73.4422C184.678 73.0204 183.596 73.2379 182.176 73.9395L179.458 75.2715C178.042 75.973 176.825 76.8876 176.74 77.3139L176.588 78.082L184.44 74.2103Z" fill="#37474F"/>
<path d="M187.696 77.3492C187.696 77.3492 187.043 79.8711 186.874 80.506C186.704 81.141 183.685 82.6017 182.172 82.8015C179.28 83.1789 178.953 83.836 179.649 85.985C180.289 87.9652 182.172 88.7156 184.783 88.3915C186.005 88.2405 187.696 87.1039 188.362 85.1192C189.21 82.5884 188.752 79.88 189.087 78.4015C189.422 76.923 188.434 76.4701 187.696 77.3492Z" fill="#B16668"/>
<path d="M21.6072 51.3664L22.4679 51.8859L43.9859 38.8767L43.1252 38.3572L21.6072 51.3664Z" fill="#455A64"/>
<path d="M43.1251 38.3571L22.4678 50.8468V32.0967L43.1251 19.6069V38.3571Z" fill="#111547"/>
<g opacity="0.8">
<path d="M43.1251 38.3571L22.4678 50.8468V32.0967L43.1251 19.6069V38.3571Z" fill="white"/>
</g>
<path d="M44.8465 17.5247L21.624 31.5728V53.4487L44.8635 39.3961L44.8465 17.5247ZM43.9985 38.8766L22.472 51.8858V32.0967L43.9858 19.092L43.9985 38.8766Z" fill="#37474F"/>
<path d="M43.9857 38.8765L43.125 38.357V19.6069L43.9857 19.083V38.8765Z" fill="#263238"/>
<path d="M44.8465 17.5246L43.9858 17.0051L20.7463 31.0533L21.6071 31.5728L44.8465 17.5246Z" fill="#455A64"/>
<path d="M20.7463 31.0532L21.6071 31.5727V53.4486L20.7463 52.9291V31.0532Z" fill="#263238"/>
<path d="M39.0717 35.2046C39.8773 34.7162 40.526 35.1114 40.526 36.0926C40.499 36.6205 40.3532 37.1342 40.1004 37.5917C39.8477 38.0493 39.4951 38.4378 39.0717 38.7255C38.2703 39.2095 37.6216 38.8188 37.6216 37.8375C37.6488 37.3102 37.7942 36.7971 38.0462 36.3396C38.2981 35.8822 38.6494 35.4933 39.0717 35.2046Z" fill="#111547"/>
<path opacity="0.2" d="M27.331 31.2397L38.2702 24.6241C38.5755 24.4376 38.8214 24.5886 38.8214 24.9526V24.9882C38.8114 25.1884 38.7562 25.3834 38.6604 25.557C38.5646 25.7306 38.4309 25.8781 38.2702 25.9872L27.331 32.6116C27.0299 32.7981 26.7798 32.6472 26.7798 32.2786V32.2387C26.7915 32.0388 26.8473 31.8445 26.943 31.6712C27.0386 31.4978 27.1715 31.3501 27.331 31.2397Z" fill="black"/>
<g opacity="0.2">
<path d="M25.6011 36.4522L40.0171 27.7498C40.3224 27.5634 40.5683 27.6477 40.5683 27.9363C40.5463 28.1136 40.485 28.283 40.3893 28.4311C40.2936 28.5791 40.1661 28.7016 40.0171 28.7888L25.6011 37.5001C25.3001 37.6866 25.0542 37.6022 25.0584 37.3092C25.0804 37.1324 25.1408 36.9633 25.2348 36.8148C25.3289 36.6662 25.4542 36.5422 25.6011 36.4522Z" fill="black"/>
<path d="M25.6011 38.5347L40.0171 29.8278C40.3224 29.6458 40.5683 29.7301 40.5683 30.0143C40.546 30.1921 40.4846 30.362 40.389 30.5107C40.2933 30.6593 40.166 30.7828 40.0171 30.8712L25.6011 39.5825C25.3001 39.7645 25.0542 39.6802 25.0584 39.3916C25.0798 39.2147 25.1399 39.0453 25.234 38.8966C25.3282 38.748 25.4538 38.6241 25.6011 38.5347Z" fill="black"/>
<path d="M25.6011 40.6126L40.0171 31.9058C40.3224 31.7237 40.5683 31.8081 40.5683 32.0967C40.5463 32.2739 40.485 32.4434 40.3893 32.5914C40.2936 32.7394 40.1661 32.8619 40.0171 32.9491L25.6011 41.6604C25.3001 41.8469 25.0542 41.7581 25.0584 41.4695C25.0804 41.2928 25.1408 41.1237 25.2348 40.9751C25.3289 40.8266 25.4542 40.7026 25.6011 40.6126Z" fill="black"/>
</g>
<path opacity="0.3" d="M36.4896 39.6536C36.3782 39.7153 36.255 39.7501 36.1292 39.7557C35.8196 39.7557 35.8493 39.4272 35.8578 39.2007C35.8578 39.0986 35.7264 38.9388 35.6585 39.0764C35.472 39.4272 35.2345 39.7557 35.031 40.0976C34.908 40.3063 34.6748 40.7814 34.378 40.7148C34.2593 40.6881 34.2169 40.5505 34.2169 40.3773C34.3667 40.0897 34.433 39.7626 34.4077 39.436C34.4077 39.3384 34.2381 39.2185 34.1915 39.3517C34.0841 39.6353 34.0211 39.9351 34.0049 40.2397C33.8673 40.493 33.7113 40.7349 33.5385 40.9634C33.4368 41.101 33.352 41.2564 33.2417 41.4074C33.212 41.4385 33.1612 41.5184 33.1188 41.5228C33.0764 41.5273 33.0297 41.4784 33.017 41.4074C33.0117 41.303 33.0276 41.1986 33.0636 41.101C33.0636 41.101 33.0636 41.101 33.0636 41.0744C33.0636 40.9723 32.9364 40.8213 32.8856 40.9501C32.6955 41.4937 32.4076 41.9941 32.0376 42.4242L31.9824 42.473C31.9824 42.4108 31.9824 42.3531 31.9824 42.291C31.9771 42.1523 31.9543 42.0149 31.9146 41.8825C31.8892 41.8159 31.7789 41.7138 31.7196 41.8026C31.4563 42.3042 31.1344 42.7695 30.7613 43.1878C30.6985 43.2419 30.6319 43.2908 30.562 43.3344C30.4942 43.2988 30.596 42.9303 30.6129 42.8904C30.6511 42.7261 30.702 42.5662 30.7528 42.4064C30.8056 42.2783 30.8441 42.1442 30.8673 42.0068C30.8673 41.8825 30.685 41.6916 30.6468 41.8603C30.6468 41.9269 30.5748 42.0912 30.5154 42.3043C30.2693 42.7809 29.9901 43.238 29.6801 43.6718C29.4018 44.1416 29.0155 44.5309 28.5565 44.804C28.4293 44.875 28.1876 44.9816 28.0477 44.875C27.9078 44.7685 27.9205 44.5864 27.9163 44.431C27.9107 44.078 27.9565 43.7262 28.052 43.3876C28.5037 43.1373 28.9227 42.8269 29.2985 42.4641C29.6674 42.1552 29.9866 41.7865 30.244 41.3719C30.3712 41.1277 30.4476 40.7325 30.138 40.5949C29.9218 40.4972 29.6462 40.657 29.4639 40.7636C29.2136 40.9189 28.9864 41.1119 28.7897 41.3364C28.391 41.8107 28.101 42.3741 27.9417 42.9836C27.9163 43.0768 27.8781 43.2012 27.8442 43.3388C27.3558 43.601 26.8019 43.6986 26.2584 43.6185C26.2288 43.6185 26.216 43.6851 26.2584 43.6896C26.7787 43.8064 27.3206 43.7521 27.8103 43.5342C27.6704 44.1646 27.594 44.9994 28.1537 45.1636C28.7134 45.3279 29.3918 44.5909 29.6928 44.1646C29.9234 43.8462 30.125 43.5058 30.2949 43.1479C30.3104 43.1217 30.3274 43.0965 30.3458 43.0724C30.3458 43.3654 30.4009 43.5786 30.6765 43.5164C30.9521 43.4542 31.2023 43.0724 31.3549 42.8371C31.5076 42.6018 31.6305 42.3931 31.7789 42.1844C31.8044 42.4508 31.8468 42.7483 32.0884 42.6994C32.3301 42.6506 32.5124 42.211 32.6396 42.0334C32.7668 41.8558 32.8304 41.7226 32.911 41.5628C32.9279 41.5919 32.9463 41.6201 32.9661 41.6472C33.1654 41.8692 33.3901 41.6472 33.5343 41.4518C33.7166 41.2032 33.9201 40.9368 34.094 40.6526C34.1353 40.7747 34.2205 40.875 34.3314 40.9323C34.6409 41.0833 34.9292 40.8169 35.1073 40.5816C35.3237 40.2723 35.5165 39.9457 35.684 39.6048C35.6966 39.6692 35.722 39.7302 35.7585 39.7837C35.795 39.8372 35.8418 39.8821 35.896 39.9156C36.01 39.9758 36.1374 40.0031 36.2648 39.9945C36.3923 39.9859 36.5153 39.9418 36.621 39.8667C36.6804 39.8179 36.5913 39.6003 36.4896 39.6536ZM29.7522 40.9146C29.8921 40.8391 30.1762 40.7103 30.2059 40.9634C30.1865 41.129 30.1183 41.2842 30.0108 41.4074C29.7656 41.7533 29.4808 42.0664 29.1628 42.3398C28.839 42.6524 28.4884 42.9333 28.1156 43.179C28.2249 42.7039 28.4268 42.2577 28.7084 41.868C28.99 41.4784 29.3453 41.1538 29.7522 40.9146Z" fill="black"/>
<path d="M55.5271 51.3664L56.3878 51.8859L77.9058 38.8767L77.0451 38.3572L55.5271 51.3664Z" fill="#455A64"/>
<path d="M77.045 38.3571L56.3877 50.8468V32.0967L77.045 19.6069V38.3571Z" fill="#111547"/>
<g opacity="0.8">
<path d="M77.045 38.3571L56.3877 50.8468V32.0967L77.045 19.6069V38.3571Z" fill="white"/>
</g>
<path d="M78.7664 17.5247L55.5439 31.5728V53.4487L78.7834 39.3961L78.7664 17.5247ZM77.9184 38.8766L56.3919 51.8858V32.0967L77.9057 19.092L77.9184 38.8766Z" fill="#37474F"/>
<path d="M77.9056 38.8765L77.0449 38.357V19.6069L77.9056 19.083V38.8765Z" fill="#263238"/>
<path d="M78.7664 17.5246L77.9057 17.0051L54.6663 31.0533L55.527 31.5728L78.7664 17.5246Z" fill="#455A64"/>
<path d="M54.6663 31.0532L55.527 31.5727V53.4486L54.6663 52.9291V31.0532Z" fill="#263238"/>
<path d="M72.9958 35.2046C73.7972 34.7162 74.4459 35.1114 74.4459 36.0926C74.4187 36.6199 74.2732 37.1331 74.0213 37.5905C73.7694 38.048 73.4181 38.4368 72.9958 38.7255C72.1902 39.2095 71.5415 38.8188 71.5415 37.8375C71.5685 37.3097 71.7143 36.796 71.9671 36.3384C72.2198 35.8808 72.5723 35.4923 72.9958 35.2046Z" fill="#111547"/>
<path opacity="0.2" d="M61.2511 31.2397L72.1945 24.6241C72.4955 24.4376 72.7415 24.5886 72.7415 24.9526V24.9882C72.7316 25.188 72.6769 25.3825 72.5819 25.5561C72.4869 25.7296 72.3542 25.8773 72.1945 25.9872L61.2511 32.6116C60.95 32.7981 60.7041 32.6472 60.7041 32.2786V32.2387C60.715 32.0391 60.7701 31.845 60.865 31.6716C60.9599 31.4982 61.0921 31.3503 61.2511 31.2397Z" fill="black"/>
<g opacity="0.2">
<path d="M59.521 36.4522L73.937 27.7498C74.2423 27.5634 74.4882 27.6477 74.4882 27.9363C74.4663 28.1136 74.405 28.283 74.3092 28.4311C74.2135 28.5791 74.0861 28.7016 73.937 28.7888L59.521 37.5001C59.22 37.6866 58.9741 37.6022 58.9783 37.3092C59.0003 37.1324 59.0607 36.9633 59.1548 36.8148C59.2488 36.6662 59.3741 36.5422 59.521 36.4522Z" fill="black"/>
<path d="M59.521 38.5347L73.937 29.8278C74.2423 29.6458 74.4882 29.7301 74.4882 30.0143C74.4659 30.1921 74.4045 30.362 74.3089 30.5107C74.2132 30.6593 74.086 30.7828 73.937 30.8712L59.521 39.5825C59.22 39.7645 58.9741 39.6802 58.9783 39.3916C58.9997 39.2147 59.0598 39.0453 59.154 38.8966C59.2481 38.748 59.3737 38.6241 59.521 38.5347Z" fill="black"/>
<path d="M59.521 40.6126L73.937 31.9058C74.2423 31.7237 74.4882 31.8081 74.4882 32.0967C74.4663 32.2739 74.405 32.4434 74.3092 32.5914C74.2135 32.7394 74.0861 32.8619 73.937 32.9491L59.521 41.6604C59.22 41.8469 58.9741 41.7581 58.9783 41.4695C59.0003 41.2928 59.0607 41.1237 59.1548 40.9751C59.2488 40.8266 59.3741 40.7026 59.521 40.6126Z" fill="black"/>
</g>
<path opacity="0.3" d="M70.4093 39.6536C70.2982 39.7163 70.1749 39.7512 70.0489 39.7557C69.7436 39.7557 69.769 39.4272 69.7775 39.2007C69.7775 39.0986 69.6461 38.9388 69.5782 39.0764C69.3917 39.4272 69.1542 39.7557 68.9507 40.0976C68.832 40.3063 68.5945 40.7814 68.302 40.7148C68.179 40.6881 68.1366 40.5505 68.1366 40.3773C68.2864 40.0897 68.3527 39.7626 68.3274 39.436C68.3274 39.3384 68.1621 39.2185 68.1112 39.3517C68.0038 39.6353 67.9408 39.9351 67.9246 40.2397C67.787 40.493 67.6311 40.7349 67.4582 40.9634C67.3607 41.101 67.2717 41.2564 67.1614 41.4074C67.136 41.4385 67.0809 41.5184 67.0385 41.5228C66.9961 41.5273 66.9494 41.4784 66.9367 41.4074C66.9314 41.303 66.9473 41.1986 66.9833 41.101C66.9852 41.0923 66.9852 41.0832 66.9833 41.0744C66.9833 40.9723 66.8561 40.8213 66.8053 40.9501C66.6152 41.4937 66.3273 41.9941 65.9573 42.4242L65.9021 42.473C65.9021 42.4108 65.9021 42.3531 65.9021 42.291C65.8968 42.1523 65.874 42.0149 65.8343 41.8825C65.8089 41.8159 65.6986 41.7138 65.6393 41.8026C65.3774 42.3051 65.0554 42.7707 64.681 43.1878C64.619 43.2429 64.5523 43.2919 64.4817 43.3344C64.4181 43.2988 64.5199 42.9303 64.5326 42.8904C64.5708 42.7261 64.6217 42.5662 64.6725 42.4064C64.7253 42.2783 64.7638 42.1442 64.787 42.0068C64.787 41.8825 64.6047 41.6916 64.5665 41.8603C64.5665 41.9269 64.4945 42.0912 64.4351 42.3043C64.1905 42.7818 63.9113 43.239 63.5998 43.6718C63.3215 44.1416 62.9352 44.5309 62.4762 44.804C62.349 44.875 62.1073 44.9816 61.9674 44.875C61.8275 44.7685 61.8445 44.5864 61.836 44.431C61.8346 44.0783 61.8803 43.7271 61.9717 43.3876C62.4234 43.1373 62.8424 42.8269 63.2182 42.4641C63.5881 42.1564 63.9075 41.7875 64.1637 41.3719C64.2909 41.1277 64.3673 40.7325 64.0577 40.5949C63.8415 40.4972 63.5659 40.657 63.3836 40.7636C63.1299 40.9124 62.8985 41.0994 62.6967 41.3186C62.298 41.7929 62.008 42.3563 61.8487 42.9658C61.8233 43.0591 61.7851 43.1834 61.7512 43.321C61.2628 43.5832 60.7089 43.6809 60.1654 43.6008C60.1357 43.6008 60.123 43.6674 60.1654 43.6718C60.6856 43.7887 61.2276 43.7344 61.7173 43.5164C61.5773 44.1469 61.501 44.9816 62.0607 45.1459C62.6204 45.3102 63.2988 44.5731 63.5998 44.1469C63.8304 43.8284 64.032 43.488 64.2019 43.1301C64.2174 43.1039 64.2344 43.0787 64.2528 43.0546C64.2528 43.3477 64.3079 43.5608 64.5835 43.4986C64.8591 43.4365 65.1093 43.0546 65.2661 42.8193C65.423 42.584 65.5375 42.3753 65.6901 42.1666C65.7156 42.433 65.7622 42.7305 65.9997 42.6817C66.2371 42.6328 66.4237 42.1933 66.5509 42.0157C66.6781 41.8381 66.7417 41.7049 66.8222 41.545C66.8391 41.5742 66.8575 41.6023 66.8773 41.6294C67.0766 41.8514 67.3013 41.6294 67.4455 41.434C67.6278 41.1854 67.8313 40.919 68.0052 40.6348C68.0465 40.7569 68.1317 40.8573 68.2426 40.9146C68.5521 41.0655 68.8405 40.7991 69.0185 40.5638C69.2349 40.2545 69.4277 39.9279 69.5952 39.587C69.6078 39.6514 69.6332 39.7124 69.6697 39.7659C69.7062 39.8195 69.7531 39.8644 69.8072 39.8978C69.9212 39.9581 70.0486 39.9853 70.1761 39.9767C70.3035 39.9682 70.4265 39.924 70.5322 39.849C70.6043 39.8179 70.511 39.6003 70.4093 39.6536ZM63.6719 40.9146C63.8161 40.8391 64.0959 40.7103 64.1256 40.9634C64.1058 41.128 64.0393 41.2827 63.9348 41.4074C63.6882 41.7521 63.4035 42.065 63.0868 42.3398C62.7629 42.6524 62.4124 42.9333 62.0395 43.179C62.1484 42.7043 62.3496 42.2583 62.6304 41.8687C62.9113 41.4791 63.2658 41.1543 63.6719 40.9146Z" fill="black"/>
</svg>
