<svg width="34" height="34" viewBox="0 0 34 34" fill="none" xmlns="http://www.w3.org/2000/svg">
<path fill-rule="evenodd" clip-rule="evenodd" d="M10.2964 6.59892C14.7576 6.21149 19.244 6.21149 23.7051 6.59892L25.8443 6.78592C26.8387 6.87299 27.7748 7.29197 28.5023 7.97546C29.2297 8.65895 29.7061 9.56724 29.8549 10.5542C30.4974 14.8275 30.4974 19.1727 29.8549 23.4459C29.7061 24.4329 29.2297 25.3412 28.5023 26.0247C27.7748 26.7082 26.8387 27.1272 25.8443 27.2142L23.7051 27.3998C19.2426 27.788 14.7575 27.788 10.2964 27.3998L8.15723 27.2142C7.16263 27.1275 6.22613 26.7086 5.49841 26.0251C4.7707 25.3416 4.29407 24.4331 4.14523 23.4459C3.5027 19.1727 3.5027 14.8275 4.14523 10.5542C4.29401 9.56724 4.77043 8.65895 5.49786 7.97546C6.22529 7.29197 7.16146 6.87299 8.15582 6.78592L10.2964 6.59892ZM23.521 8.71683C19.1819 8.33856 14.8182 8.33856 10.4791 8.71683L8.33998 8.90242C7.82131 8.9483 7.33309 9.16707 6.95365 9.52365C6.57421 9.88023 6.32555 10.3539 6.24757 10.8688C5.88255 13.2921 5.7351 15.7433 5.80698 18.1929L11.2909 12.7076C11.3933 12.6054 11.5154 12.5252 11.6498 12.4719C11.7843 12.4185 11.9282 12.3932 12.0728 12.3975C12.2173 12.4017 12.3595 12.4354 12.4906 12.4965C12.6217 12.5577 12.7389 12.6449 12.8351 12.7529L18.0371 18.6038L21.6212 17.4081C21.8177 17.3423 22.0292 17.3354 22.2295 17.3883C22.4299 17.4411 22.6104 17.5514 22.7489 17.7056L27.7341 23.2448L27.754 23.1314C28.3653 19.0667 28.3653 14.9334 27.754 10.8688C27.6759 10.3537 27.4271 9.87984 27.0473 9.52324C26.6676 9.16664 26.1791 8.94799 25.6602 8.90242L23.521 8.71683ZM26.3784 24.9164L21.634 19.645L18.0441 20.8407C17.8469 20.9065 17.6346 20.9131 17.4336 20.8594C17.2327 20.8058 17.0519 20.6943 16.9136 20.5389L11.9964 15.0068L5.98407 21.0178C6.05301 21.7242 6.14037 22.4283 6.24615 23.13C6.32391 23.6453 6.57265 24.1195 6.9524 24.4764C7.33215 24.8333 7.82086 25.0521 8.33998 25.0977L10.4791 25.2833C14.8184 25.6602 19.1817 25.6602 23.521 25.2833L25.6602 25.0977C25.9123 25.0751 26.156 25.0127 26.3784 24.9164Z" fill="black"/>
</svg>
